<svg xmlns="http://www.w3.org/2000/svg" xmlns:xlink="http://www.w3.org/1999/xlink" viewBox="0 0 64 64"><defs><linearGradient id="a" x1="7.48" x2="72.379" y1="65.413" y2="11.639" gradientUnits="userSpaceOnUse"><stop offset="0" stop-color="#fff200"/><stop offset="1" stop-color="#cd118c"/></linearGradient><linearGradient id="b" x1="6.837" x2="71.736" y1="64.621" y2="10.848" xlink:href="#a"/><linearGradient id="c" x1="10.837" x2="75.736" y1="69.449" y2="15.676" xlink:href="#a"/><linearGradient id="d" x1="13.055" x2="77.954" y1="72.126" y2="18.352" xlink:href="#a"/><linearGradient id="e" x1="18.936" x2="83.835" y1="79.224" y2="25.451" xlink:href="#a"/></defs><path fill="url(#a)" d="M61,54H58V29a2,2,0,0,0-2-2H53.89A6.987,6.987,0,0,0,50,15.08V14a2,2,0,0,1,2-2h3V10H52a4,4,0,0,0-4,4v1.08A6.987,6.987,0,0,0,44.11,27H7a1,1,0,0,0-1,1V54H3a1,1,0,0,0-1,1v2a5.006,5.006,0,0,0,5,5H57a5.006,5.006,0,0,0,5-5V55A1,1,0,0,0,61,54ZM49,17a4.949,4.949,0,0,1,3.078,1.09A7.116,7.116,0,0,0,51,18a7.008,7.008,0,0,0-6.794,5.343A4.932,4.932,0,0,1,44,22,5.006,5.006,0,0,1,49,17Zm-2.868,9.083A4.8,4.8,0,0,1,46,25a5.006,5.006,0,0,1,5-5,4.89,4.89,0,0,1,2.88.936,4.985,4.985,0,0,1-7.748,5.147ZM56,29V54H41.935a6.86,6.86,0,0,0-1.075-2.887,5.209,5.209,0,0,1,0-5.734,7.192,7.192,0,0,0,0-7.771,5.2,5.2,0,0,1,0-5.726A6.841,6.841,0,0,0,41.935,29ZM28,29v7a2,2,0,0,1-4,0,3,3,0,0,0-3-3H18a2,2,0,0,0-2,2v.5a1.5,1.5,0,0,1-3,0V34a3,3,0,0,0-3-3H8V29ZM8,33h2a1,1,0,0,1,1,1v1.5a3.5,3.5,0,0,0,7,0V35h3a1,1,0,0,1,1,1,4,4,0,0,0,8,0V29h9.919a5.131,5.131,0,0,1-.779,1.861,7.183,7.183,0,0,0,0,7.766,5.206,5.206,0,0,1,0,5.732,7.2,7.2,0,0,0,0,7.774A5.153,5.153,0,0,1,39.919,54H8ZM60,57a3,3,0,0,1-3,3H7a3,3,0,0,1-3-3V56H60Z"/><rect width="2" height="2" x="44" y="32" fill="url(#b)"/><rect width="2" height="2" x="49" y="36" fill="url(#c)"/><rect width="2" height="2" x="46" y="43" fill="url(#d)"/><rect width="2" height="2" x="52" y="50" fill="url(#e)"/></svg>