<svg xmlns="http://www.w3.org/2000/svg" enable-background="new 0 0 512 512" viewBox="0 0 512 512"><path d="M160.149,483.171l0.578,13.168c0.328,8.621,7.352,15.375,15.992,15.375h158.562c8.641,0,15.664-6.754,15.992-15.328
	l0.578-13.215l14.922-14.922c21.008-21,27.453-52.43,16.414-80.062l-43.409-108.566c5.294-0.242,10.082-2.941,12.886-7.454
	c2.945-4.738,3.227-10.562,0.734-15.637l-24.68-49.277l18.672-49.867c1.883-4.898,1.234-10.414-1.742-14.742
	c-1.47-2.143-3.421-3.85-5.649-5.038l27.157-54.313c1.242-2.48,1.109-5.426-0.352-7.785c-1.461-2.355-4.031-3.793-6.805-3.793
	h-11.055l10.211-20.422c1.758-3.52,0.695-7.801-2.508-10.09l-56-40c-2.125-1.512-4.852-1.91-7.312-1.031l-46.074,16.261
	l-69.411-16.5c-4.039-0.961-8.125,1.316-9.438,5.25l-16,48c-0.378,1.134-0.445,2.28-0.322,3.395
	c0.036,0.333,0.187,0.626,0.265,0.953c0.187,0.778,0.424,1.516,0.829,2.201c0.077,0.131,0.073,0.292,0.158,0.42l7.708,11.563h-9.052
	c-2.773,0-5.344,1.438-6.805,3.793c-1.461,2.359-1.594,5.305-0.352,7.785l27.157,54.313c-2.228,1.188-4.179,2.895-5.649,5.038
	c-2.977,4.328-3.625,9.844-1.766,14.676l18.695,49.934l-24.703,49.324c-2.469,5.027-2.188,10.852,0.758,15.59
	c2.804,4.512,7.592,7.211,12.886,7.454l-43.409,108.566c-11.039,27.633-4.594,59.062,16.414,80.062L160.149,483.171z
	 M323.055,135.714h-6.109l24-48h6.109L323.055,135.714z M181.274,17.191l38.149,9.067L172.76,42.728L181.274,17.191z M172.36,59.835
	l122.375-43.191L341.79,50.25l-10.734,21.465H180.281L172.36,59.835z M171.055,87.714l1.789,3.578
	c1.406,2.805,4.227,4.422,7.164,4.422c1.203,0,2.422-0.27,3.57-0.844c2.799-1.399,4.336-4.228,4.342-7.156h135.134l-24,48h-86.109
	l-13.789-27.578c-1.984-3.949-6.781-5.547-10.734-3.578c-3.953,1.977-5.555,6.781-3.578,10.734l10.211,20.422h-6.109l-24-48H171.055
	z M179.524,151.714l28.479,0c0.002,0,0.003,0,0.005,0s0.004,0,0.006,0l95.95-0.003c0.009,0,0.019,0.003,0.028,0.003
	c0.008,0,0.015-0.003,0.023-0.003l23.944,0c0.011,0,0.022,0.004,0.033,0.004c0.009,0,0.019-0.004,0.028-0.004h4.41l-17.977,48.004
	H197.543L179.524,151.714z M196.945,215.714h26.771c-5.669,6.572-12.722,13.561-19.293,16.844
	c-3.953,1.977-5.555,6.781-3.578,10.734c1.406,2.805,4.227,4.426,7.164,4.422c1.203,0,2.422-0.27,3.57-0.844
	c9.875-4.938,19.438-14.852,26.078-22.828c6.406,14.746,11.93,20.574,12.688,21.328c3.086,3.098,8.055,3.09,11.188,0.039
	c3.141-3.043,3.211-8.086,0.211-11.27c-0.057-0.06-4.664-5.181-10.191-18.426h63.501l23.987,48l-166.125-0.02L196.945,215.714z
	 M298.415,279.714l15.677,42.78c-3.34,0.877-6.665,1.837-9.951,2.903c-12.961,4.266-39.406,7.617-91.945-0.711
	c-4.987-0.775-9.771-1.366-14.412-1.842l15.803-43.131H298.415z M143.673,394.125l45.746-114.41h7.134l-41.185,112.402
	c-4.266,10.699-5.117,22.262-2.477,33.438c0.875,3.684,4.156,6.16,7.781,6.16c0.609,0,1.227-0.07,1.852-0.215
	c4.297-1.016,6.961-5.328,5.945-9.625c-1.891-7.965-1.273-16.207,1.844-24.051l21.763-59.399c5.593,0.467,11.422,1.102,17.636,2.071
	c22.453,3.559,42.078,5.336,58.742,5.336c16.492,0,30.086-1.742,40.656-5.227c3.462-1.123,6.985-2.094,10.524-2.987l22.14,60.417
	c5.867,14.75,2.422,31.527-8.5,42.469l-2.641,2.395c-8.891,8.266-20.477,12.816-32.633,12.816h-84
	c-12.156,0-23.742-4.551-32.633-12.816c-3.227-2.996-8.281-2.832-11.305,0.406c-3.008,3.234-2.828,8.297,0.414,11.305
	c11.852,11.031,27.312,17.105,43.523,17.105h84c16.211,0,31.672-6.074,43.445-17.031l2.852-2.594
	c15.734-15.738,20.578-39.281,12.422-59.766l-41.27-112.609h7.133l45.746,114.41c8.664,21.684,3.617,46.336-12.867,62.812
	l-17.117,17.121c-1.414,1.414-2.25,3.305-2.336,5.305l-0.727,16.352l-158.57-0.031l-0.719-16.32c-0.086-2-0.922-3.891-2.336-5.305
	l-17.117-17.121C140.055,440.46,135.008,415.808,143.673,394.125z"/></svg>