<svg xmlns="http://www.w3.org/2000/svg" enable-background="new 0 0 32 32" viewBox="0 0 32 32"><path d="M20.859,20.009l3.12,5.874C24.007,25.936,23.968,26,23.908,26H8.091c-0.063,0-0.103-0.067-0.073-0.122
	l2.071-3.895c2.13,0.097,4.161-0.201,5.451-0.87C17.06,20.324,18.982,20.027,20.859,20.009z"/><path d="M21.084,11.909l2.864-8.593C24.165,2.671,23.683,2,23,2H9C8.317,2,7.835,2.671,8.052,3.316l2.864,8.593
	L4.479,24.016C3.039,26.731,5.011,30,8.089,30h15.822c3.075,0,5.052-3.265,3.609-5.985L21.084,11.909z M10.388,4h11.225l-1.333,4
	h-8.559L10.388,4z M23.911,28H8.089c-1.572,0-2.575-1.665-1.844-3.046L11.006,16h9.989l4.76,8.953
	C26.487,26.334,25.484,28,23.911,28z"/></svg>