<svg xmlns="http://www.w3.org/2000/svg" width="64" height="64" viewBox="0 0 16.933 16.933"><path d="m 3.1760169,0.52918197 c -1.4643199,0 -2.64685999,1.18874803 -2.64685999,2.64686703 0,1.4581201 1.18461009,2.6442828 2.64685999,2.6442828 1.4622599,0 2.6442899,-1.1861628 2.6442899,-2.6442828 0,-1.458119 -1.1799599,-2.64686703 -2.6442899,-2.64686703 z m 0,0.52968403 c 1.1669701,0 2.1151201,0.945047 2.1151201,2.117183 0,1.172137 -0.9512501,2.115117 -2.1151201,2.115117 -1.1638599,0 -2.11718,-0.94298 -2.11718,-2.115117 0,-1.172136 0.9502201,-2.117183 2.11718,-2.117183 z M 2.909887,3.1776 c 1.5e-4,0.0705 0.0284,0.1380159 0.0786,0.1875851 L 3.5176469,3.894352 C 3.773437,4.1328339 4.1333669,3.7795239 3.890757,3.519697 L 3.439617,3.068562 V 1.855716 c 0.003,-0.149357 -0.1183,-0.266347 -0.26768,-0.264583 -0.14715,0.0014 -0.26487,0.117457 -0.262025,0.264583 z M 9.2588569,3.166231 C 9.0467568,3.167331 8.9233168,3.3994269 9.040777,3.5760249 9.3651268,4.063665 9.446597,4.4198219 9.4257669,4.703088 9.404968,4.9863541 9.278267,5.2325319 9.119327,5.5076899 8.9603868,5.782847 8.7674569,6.084091 8.7012668,6.4688711 c -0.0662,0.3847814 0.015499,0.8331064 0.3338301,1.3435874 0.1883,0.29679 0.63822,0.03108 0.4490699,-0.279052 C 9.2188469,7.0984045 9.1786368,6.8148425 9.222677,6.5587879 9.266677,6.3027329 9.4137969,6.056409 9.5782169,5.7717559 9.7426369,5.4871029 9.924317,5.158859 9.954937,4.7423619 9.985537,4.3258649 9.855237,3.8462881 9.480547,3.283019 9.431647,3.207469 9.3488269,3.166052 9.2588569,3.166231 Z m 1.8536291,-0.0021 c -0.21209,0.0011 -0.33983,0.2367641 -0.22014,0.4118609 0.32577,0.4897892 0.40788,0.8437972 0.38705,1.127063 -0.0208,0.2832661 -0.14957,0.529445 -0.3085,0.8046021 -0.15894,0.275158 -0.34981,0.5764009 -0.416,0.9611821 -0.0662,0.3847814 0.004,0.8150714 0.33383,1.3435874 0.18649,0.298 0.63384,0.02231 0.44907,-0.279054 -0.26633,-0.434382 -0.30553,-0.718562 -0.26148,-0.9746166 0.044,-0.2560551 0.18904,-0.502379 0.35346,-0.787032 0.16442,-0.284653 0.34611,-0.612898 0.37672,-1.029395 0.0306,-0.416497 -0.0997,-0.8960729 -0.47439,-1.4593419 -0.0488,-0.07555 -0.12965,-0.119035 -0.21962,-0.118856 z m 1.85346,8.467e-4 c -0.21303,-5.292e-4 -0.34225,0.2351329 -0.22204,0.4110041 0.33086,0.4974249 0.40789,0.843797 0.38706,1.1270628 -0.0208,0.2832661 -0.14802,0.529445 -0.30696,0.8046021 -0.15893,0.275158 -0.35135,0.5764009 -0.41754,0.961182 -0.0662,0.3847808 0.006,0.8177288 0.33383,1.3435868 0.18064,0.300923 0.63822,0.02523 0.44907,-0.279053 -0.25993,-0.416844 -0.30553,-0.718562 -0.26149,-0.9746167 0.044,-0.256055 0.18905,-0.5023792 0.35347,-0.7870322 0.16442,-0.2846528 0.3461,-0.612898 0.37672,-1.0293948 0.0306,-0.416497 -0.0977,-0.8960731 -0.47232,-1.4593421 -0.0489,-0.07555 -0.12983,-0.118178 -0.2198,-0.117999 z M 5.6037769,6.3318936 c -0.0739,0.1108782 -0.1398501,0.2211883 -0.1973998,0.3286619 -0.1220801,-0.03024 -0.24765,-0.04547 -0.3787902,-0.04547 -0.87362,0 -1.5880199,0.712331 -1.5880199,1.585949 0,0.40643 0.1508001,0.7772729 0.40411,1.0588499 h -2.25567 c -0.28858,0 -0.5291701,0.23335 -0.5291701,0.529167 v 1.0583336 c 0,0.303052 0.2405901,0.529684 0.5291701,0.529684 h 6.0859299 v 0.279569 c -0.2170999,0.04298 -0.3903901,0.207453 -0.5115999,0.319876 -0.14262,0.132292 -0.2196402,0.19327 -0.2837,0.19327 -0.0641,0 -0.1405599,-0.06098 -0.2831902,-0.19327 -0.14263,-0.13229 -0.3456998,-0.333829 -0.6423297,-0.333829 -0.2966302,0 -0.4997101,0.201539 -0.6423401,0.333829 -0.14263,0.132292 -0.22016,0.19327 -0.2831901,0.19327 -0.061,0 -0.14107,-0.06098 -0.2837,-0.19327 -0.14263,-0.132326 -0.3457099,-0.333829 -0.6423398,-0.333829 -0.2914603,0 -0.4997101,0.201539 -0.6423401,0.333829 -0.14263,0.132292 -0.2211901,0.19327 -0.2831901,0.19327 -0.062,0 -0.1410699,-0.06098 -0.2836999,-0.19327 -0.14263,-0.13229 -0.35088,-0.333829 -0.6444,-0.333829 -0.26459,0 -0.54456,0.168428 -0.74776,0.312125 -0.2032,0.143697 -0.3576001,0.287321 -0.3576001,0.287321 -0.2561,0.250567 0.1038601,0.626501 0.3591501,0.38654 0,0 0.13188,-0.12096 0.30282,-0.241846 0.17094,-0.120886 0.35349,-0.214974 0.43925,-0.214974 0.0754,0 0.14469,0.06098 0.28732,0.19327 0.14263,0.132292 0.3483,0.33383 0.6449199,0.33383 0.2925,0 0.49971,-0.201538 0.64234,-0.33383 0.14263,-0.132291 0.2212002,-0.195337 0.2831902,-0.195337 0.0558,0 0.1405599,0.06305 0.2831899,0.195337 0.14263,0.132292 0.35136,0.33383 0.6428499,0.33383 0.29303,0 0.49971,-0.201538 0.64234,-0.33383 0.14263,-0.132291 0.22533,-0.195337 0.2831902,-0.195337 0.0579,0 0.1405498,0.06305 0.2831798,0.195337 0.14263,0.132292 0.3498501,0.33383 0.6423401,0.33383 0.2925,0 0.5002299,-0.201538 0.6428599,-0.33383 0.0611,-0.05669 0.1090801,-0.100551 0.15244,-0.132291 v 0.732255 H 1.588007 c -0.28858,0 -0.5291701,0.233276 -0.5291701,0.529166 v 1.058334 H 0.79270691 c -0.008,-3.97e-4 -0.0169,-3.97e-4 -0.0253,0 -0.13534999,0.01356 -0.23823,0.127527 -0.23823,0.263549 0,0.885131 0.71312009,1.588017 1.58801009,1.588017 h 12.698969 c 0.8749,0 1.58802,-0.70581 1.58802,-1.588017 -5.82e-4,-0.146119 -0.1195,-0.264107 -0.26562,-0.263549 h -2.25516 c 0.0148,-0.01646 0.0303,-0.03202 0.0444,-0.04909 0.11674,-0.141369 0.20717,-0.304123 0.26975,-0.480074 h 0.50747 c 0.94947,0 1.69912,-0.787869 1.69912,-1.746147 v -0.742073 c 0,-0.958278 -0.75275,-1.7461466 -1.69912,-1.7461466 h -0.41807 v -0.792716 c 8.47e-4,-0.146322 -0.11722,-0.265551 -0.26355,-0.266135 H 7.9374669 C 7.791147,8.7307864 7.673077,8.8500164 7.673917,8.9963384 v 0.263549 h -1.46228 c 0.2533099,-0.281578 0.40343,-0.652421 0.40343,-1.05885 0,-0.554428 -0.2868501,-1.044947 -0.7203699,-1.328601 0.0445,-0.08086 0.0911,-0.160719 0.1462497,-0.243396 0.3667702,-0.5501547 0.95348,-1.0722866 1.8965201,-1.0722866 0.3606901,0.008 0.3606901,-0.537166 10e-6,-0.5291694 -1.1706999,-3.7e-6 -1.90672,0.6638385 -2.3337,1.3043092 z m -0.42374,0.8226699 C 5.077427,7.4218915 5.033277,7.6150005 5.033277,7.6150005 c -0.0726,0.345542 0.43518,0.458791 0.51728,0.115238 0,0 0.0345,-0.15221 0.11679,-0.370003 0.25264,0.19234 0.41857,0.496035 0.41857,0.840775 0,0.587636 -0.47586,1.05885 -1.0583301,1.05885 -0.5824699,0 -1.0588498,-0.471214 -1.0588498,-1.05885 0,-0.587635 0.47122,-1.056266 1.0588498,-1.0562565 0.0527,9.5e-6 0.10189,0.00251 0.15245,0.00981 z m 8.5777691,2.105315 v 4.2343675 c 0,0.583658 -0.46796,1.058334 -1.05885,1.058334 H 9.2598869 c -0.0902,0 -0.1482899,-0.01432 -0.2154999,-0.0212 -0.4704702,-0.0946 -0.8433602,-0.520115 -0.8433602,-1.037146 0.00105,-1.43816 3.89e-5,-2.930305 1.01e-5,-4.2343266 z M 1.588007,9.7890465 H 7.6739369 V 10.847379 H 1.588007 Z m 12.698959,0.5291665 h 0.41807 c 0.64158,0 1.16995,0.533595 1.16995,1.21698 v 0.742073 c 0,0.675117 -0.52217,1.21698 -1.16995,1.21698 h -0.41807 v -0.53175 c 0.114784,0.0013 0.230728,5.29e-4 0.345899,5.29e-4 0.41592,-1.2e-5 0.713131,-0.373972 0.713131,-0.793246 v -0.529166 c 0,-0.424796 -0.305471,-0.793234 -0.713131,-0.793234 -0.115055,-3.78e-4 -0.231282,2.63e-4 -0.345899,5.29e-4 z m -1.32601,0.261999 c -0.14613,0.0014 -0.26342,0.121045 -0.262,0.267167 v 1.058851 c 0,0.353122 0.52968,0.353122 0.52968,0 v -1.058851 c 10e-4,-0.148349 -0.11934,-0.268897 -0.26768,-0.267167 z m 1.32601,0.796334 c 0.11428,0.0013 0.23072,5.29e-4 0.34572,5.29e-4 0.081,0 0.18345,0.09718 0.18345,0.26355 v 0.529167 c 0,0.164298 -0.0962,0.26355 -0.18345,0.26355 -0.11478,-3.7e-4 -0.23175,2.64e-4 -0.34572,5.29e-4 z m -1.32601,1.318783 c -0.14715,0.0014 -0.26487,0.122625 -0.262,0.269751 v 0.263549 c 0,0.353123 0.52968,0.353123 0.52968,0 V 12.96508 c 0.003,-0.149358 -0.11831,-0.271515 -0.26768,-0.269751 z M 1.588007,13.494246 h 6.0848999 c 0,0.406561 0.1497001,0.776997 0.4018801,1.058334 H 1.588007 Z M 1.0913969,15.082263 H 15.841916 c -0.10635,0.423358 -0.49779,0.792716 -1.02578,0.792716 H 2.117167 c -0.48665,0 -0.8987201,-0.32085 -1.0257701,-0.792716 z" color="#000" font-family="sans-serif" font-weight="400" overflow="visible" style="line-height:normal;font-variant-ligatures:normal;font-variant-position:normal;font-variant-caps:normal;font-variant-numeric:normal;font-variant-alternates:normal;font-feature-settings:normal;text-indent:0;text-align:start;text-decoration-line:none;text-decoration-style:solid;text-decoration-color:#000;text-transform:none;text-orientation:mixed;shape-padding:0;isolation:auto;mix-blend-mode:normal"/></svg>