<svg xmlns="http://www.w3.org/2000/svg" enable-background="new 0 0 512 512" viewBox="0 0 512 512"><g display="none"><circle cx="256" cy="48" r="24" fill="#C4C2C2" stroke="#000" stroke-linecap="round" stroke-linejoin="round" stroke-miterlimit="10" stroke-width="16"/><path fill="#C4C2C2" stroke="#000" stroke-linecap="round" stroke-linejoin="round" stroke-miterlimit="10" stroke-width="16" d="
		M384,200H128L92.6,341.5C79.7,393.2,92.9,447.9,128,488l0,0h256l0,0c35.1-40.1,48.3-94.8,35.4-146.5L384,200z"/><path fill="none" stroke="#000" stroke-linecap="round" stroke-linejoin="round" stroke-miterlimit="10" stroke-width="16" d="
			M416.3,329.4L416.3,329.4c-15.1,9.1-33.8,9.5-49.3,1.1l-56.9-30.7c-13.9-7.5-30.5-8-44.8-1.3l-74.6,34.8
			c-14.3,6.7-30.9,6.2-44.8-1.3L101,307.9l-8.4,33.6C79.7,393.2,92.9,447.9,128,488h0h256l0,0c35.1-40.1,48.3-94.8,35.4-146.5
			L416.3,329.4z"/><path fill="#C4C2C2" stroke="#000" stroke-linecap="round" stroke-linejoin="round" stroke-miterlimit="10" stroke-width="16" d="
		M456,152h-96v32h96v88c0,17.7,14.3,32,32,32l0,0V184v-10.8c0-11.7-9.5-21.2-21.2-21.2H456z"/><rect width="256" height="48" x="128" y="152" fill="#C4C2C2" stroke="#000" stroke-linecap="round" stroke-linejoin="round" stroke-miterlimit="10" stroke-width="16"/><polygon fill="#C4C2C2" stroke="#000" stroke-linecap="round" stroke-linejoin="round" stroke-miterlimit="10" stroke-width="16" points="384 152 128 152 88 104 392 104"/><path fill="#C4C2C2" stroke="#000" stroke-linecap="round" stroke-linejoin="round" stroke-miterlimit="10" stroke-width="16" d="
		M353.7,86l38.3,18H120l38.3-18C220.2,56.8,291.8,56.8,353.7,86z"/><line x1="168" x2="168" y1="232" y2="440" fill="#C4C2C2" stroke="#000" stroke-linecap="round" stroke-linejoin="round" stroke-miterlimit="10" stroke-width="16"/><line x1="208" x2="168" y1="240" y2="240" fill="#C4C2C2" stroke="#000" stroke-linecap="round" stroke-linejoin="round" stroke-miterlimit="10" stroke-width="16"/><line x1="208" x2="168" y1="304" y2="304" fill="#C4C2C2" stroke="#000" stroke-linecap="round" stroke-linejoin="round" stroke-miterlimit="10" stroke-width="16"/><line x1="192" x2="168" y1="272" y2="272" fill="#C4C2C2" stroke="#000" stroke-linecap="round" stroke-linejoin="round" stroke-miterlimit="10" stroke-width="16"/><path fill="#C4C2C2" stroke="#000" stroke-linecap="round" stroke-linejoin="round" stroke-miterlimit="10" stroke-width="16" d="
			M326.6,408.3l-0.7-0.5c25.9-5.3,35-21.5,37.8-35.7c-15.4-13.3-42.7-8.6-62.3,11c-18.9,18.9-23.9,44.9-12.5,60.5
			C291.7,429.5,300.8,413.5,326.6,408.3z"/><path fill="#C4C2C2" stroke="#000" stroke-linecap="round" stroke-linejoin="round" stroke-miterlimit="10" stroke-width="16" d="M355.6 437.5c20.3-20.3 24.6-48.9 9.6-63.9-.5-.5-1-1-1.6-1.4-2.8 14.2-11.9 30.4-37.8 35.7l.7.5c-25.7 5.2-34.9 21.2-37.7 35.4.9 1.2 1.8 2.3 2.9 3.4C306.7 462 335.3 457.8 355.6 437.5zM275.6 404l-.8.2c14.6-22.1 9.6-39.9 1.5-52-20.2 1.5-36.3 24.1-36.3 51.9 0 26.7 14.9 48.6 34 51.6C266 443.6 261.1 425.9 275.6 404z"/><path fill="#C4C2C2" stroke="#000" stroke-linecap="round" stroke-linejoin="round" stroke-miterlimit="10" stroke-width="16" d="
			M316.8,404.1c0-28.7-17.2-51.9-38.4-51.9c-0.7,0-1.4,0-2.1,0.1c8.1,12,13.1,29.9-1.5,52l0.8-0.2c-14.5,21.9-9.6,39.7-1.7,51.7
			c1.5,0.2,2.9,0.3,4.4,0.3C299.6,456,316.8,432.7,316.8,404.1z"/></g><g display="none"><path d="M466.8,144h-73.4l6.4-38.7c0,0,0-0.1,0-0.1c0-0.2,0.1-0.4,0.1-0.7c0,0,0-0.1,0-0.1c0-0.3,0-0.5,0-0.8
		c0-0.1,0-0.1,0-0.2c0-0.2,0-0.4-0.1-0.6c0-0.1,0-0.2,0-0.2c0-0.2-0.1-0.4-0.1-0.6c0-0.1,0-0.1-0.1-0.2c-0.1-0.3-0.2-0.5-0.2-0.7
		c0,0,0-0.1,0-0.1c-0.1-0.2-0.2-0.4-0.3-0.6c0-0.1-0.1-0.1-0.1-0.2c-0.1-0.2-0.2-0.3-0.3-0.5c0-0.1-0.1-0.1-0.1-0.2
		c-0.3-0.4-0.6-0.8-1-1.2c0,0-0.1-0.1-0.2-0.1c-0.1-0.1-0.3-0.3-0.5-0.4c-0.1-0.1-0.1-0.1-0.2-0.2c-0.2-0.1-0.3-0.2-0.5-0.3
		c-0.1,0-0.1-0.1-0.2-0.1c-0.2-0.1-0.4-0.2-0.7-0.4l0,0c0,0,0,0,0,0l-38.3-18c-22.7-10.7-46.5-17.5-70.7-20.7
		c1.1-3.2,1.6-6.6,1.6-10c0-17.6-14.4-32-32-32s-32,14.4-32,32c0,3.5,0.6,6.8,1.6,10c-24.2,3.1-48,10-70.7,20.7L118.2,96H88
		c-3.1,0-5.9,1.8-7.2,4.6c-1.3,2.8-0.9,6.1,1.1,8.5l38.1,45.8V199L93.3,306l-8.4,33.6c-2.5,10.2-4.1,20.4-4.8,30.7
		c-2.8,44.5,12,88.8,41.9,123c0.9,1,2.1,1.8,3.4,2.3c0,0,0.1,0,0.1,0.1c0.4,0.1,0.9,0.2,1.3,0.3c0.4,0.1,0.8,0.1,1.2,0.1h256
		c0.4,0,0.8,0,1.3-0.1c0.1,0,0.3,0,0.4-0.1c0.1,0,0.2-0.1,0.3-0.1c0.2,0,0.4-0.1,0.5-0.1c0,0,0.1,0,0.1-0.1c1.3-0.5,2.4-1.2,3.4-2.3
		c29.9-34.2,44.7-78.5,41.9-123c-0.6-10.3-2.2-20.5-4.8-30.7l-3-12.1c0,0,0,0,0,0L392,199v-7h56v80c0,22.1,17.9,40,40,40
		c4.4,0,8-3.6,8-8V173.2C496,157.1,482.9,144,466.8,144z M176,312h32c4.4,0,8-3.6,8-8s-3.6-8-8-8h-32v-16h16c4.4,0,8-3.6,8-8
		s-3.6-8-8-8h-16v-16h32c4.4,0,8-3.6,8-8s-3.6-8-8-8h-32c0-4.4-3.6-8-8-8c-4.4,0-8,3.6-8,8v96.9c-3.5-0.8-7-2.1-10.3-3.9l-39.4-21.2
		l24-95.8h243.5L407,325.2c-11.6,4.9-25,4.4-36.3-1.7l-56.9-30.7c-16-8.6-35.5-9.2-52-1.5l-74.6,34.8c-3.6,1.7-7.4,2.8-11.3,3.4V312
		z M136,192v-32h224h16v32H136z M240,48c0-8.8,7.2-16,16-16s16,7.2,16,16c0,3-0.9,5.9-2.4,8.4c-9-0.5-18.1-0.5-27.1,0
		C240.9,53.9,240,51,240,48z M161.8,93.2c24.5-11.5,50.5-18.3,76.7-20.4c0.6,0,1.3,0,1.9-0.1c10.4-0.7,20.8-0.7,31.2,0
		c0.5,0.1,1,0.2,1.5,0.2c0.1,0,0.3,0,0.4,0c26.2,2.1,52.2,8.9,76.7,20.4l6,2.8H155.8L161.8,93.2z M120,112h262.6l-5.3,32H360H131.7
		l-26.7-32H120z M131.7,480c-23.7-28.4-36.2-64-35.9-100.3c0.1-7.6,0.7-15.1,1.9-22.7c0.7-4.5,1.6-9.1,2.8-13.5l5.9-23.6l35.9,19.3
		c5.6,3,11.7,5,17.9,6.1V440c0,4.4,3.6,8,8,8c4.4,0,8-3.6,8-8v-94.3c6.2-0.7,12.3-2.3,18.1-5l74.6-34.8c11.9-5.6,26-5.2,37.6,1.1
		l56.9,30.7c14.8,8,32.3,9,47.8,3.2l0.7,2.6c1.1,4.5,2,9,2.8,13.5c1.2,7.6,1.8,15.1,1.9,22.7c0.3,36.3-12.2,71.9-35.9,100.3H131.7z
		 M480,294.6c-9.3-3.3-16-12.2-16-22.6v-88c0-4.4-3.6-8-8-8h-64v-16h74.8c7.3,0,13.2,5.9,13.2,13.2V294.6z"/><path d="M377.8,385c-0.1-0.1-0.1-0.1-0.2-0.2c0,0,0,0-0.1-0.1c-14-14-39.8-11.8-61.2,5.4
		c-6.7-17.3-19.7-28.8-34.9-28.9c-0.1,0-0.1,0-0.2,0c0,0,0,0,0,0c-22.4,0-40,24.6-40,56c0,31.4,17.6,56,40,56l41.1-0.1
		c9.4,0,19.7-3,29.6-9.1c5.1-3.1,9.9-6.9,14.3-11.3C388.2,430.5,393.3,400.9,377.8,385z M277.9,456.7c-11.6-2.7-20.8-19.7-20.8-39.6
		c0-10.1,2.4-19.5,6.2-26.6c-0.7,11.6,3.3,23.4,12.2,32.2C284.8,432,285.6,446.5,277.9,456.7z M299.1,443.3
		c0.6-11.5-3.5-23.1-12.2-31.9c-9.2-9.2-10-23.8-2.4-33.9c11.5,2.8,20.7,19.8,20.7,39.6C305.1,427,302.8,436.2,299.1,443.3z
		 M314.6,448c4.1-8.8,6.5-19.4,6.5-30.9c0-3.2-0.2-6.3-0.5-9.4c0.1-0.1,0.2-0.3,0.4-0.4c1.7-1.7,3.4-3.2,5.2-4.6
		c0.1,0,0.1-0.1,0.2-0.1c5.8-4.7,12-7.9,17.9-9.6c-8.7,7.7-14.2,18.9-14.2,31.4C330,434.9,323.7,443.9,314.6,448z M354.9,441.3
		c-3.5,3.5-7.3,6.5-11.4,9c-3.8,2.3-7.7,4-11.4,5.2c8.5-7.7,13.8-18.8,13.8-31.1c0-13.1,9.7-23.9,22.3-25.7
		C374.4,408.8,368.9,427.3,354.9,441.3z"/></g><linearGradient id="a" x1="80.343" x2="433.444" y1="451.657" y2="98.556" gradientUnits="userSpaceOnUse"><stop offset="0" stop-color="#12c2e9"/><stop offset=".533" stop-color="#c471ed"/><stop offset="1" stop-color="#f64f59"/></linearGradient><path fill="url(#a)" d="M466.8,144h-73.4l6.4-38.7c0,0,0-0.1,0-0.1c0-0.2,0.1-0.4,0.1-0.7c0,0,0-0.1,0-0.1
		c0-0.3,0-0.5,0-0.8c0-0.1,0-0.1,0-0.2c0-0.2,0-0.4-0.1-0.6c0-0.1,0-0.2,0-0.2c0-0.2-0.1-0.4-0.1-0.6c0-0.1,0-0.1-0.1-0.2
		c-0.1-0.3-0.2-0.5-0.2-0.7c0,0,0-0.1,0-0.1c-0.1-0.2-0.2-0.4-0.3-0.6c0-0.1-0.1-0.1-0.1-0.2c-0.1-0.2-0.2-0.3-0.3-0.5
		c0-0.1-0.1-0.1-0.1-0.2c-0.3-0.4-0.6-0.8-1-1.2c0,0-0.1-0.1-0.2-0.1c-0.1-0.1-0.3-0.3-0.5-0.4c-0.1-0.1-0.1-0.1-0.2-0.2
		c-0.2-0.1-0.3-0.2-0.5-0.3c-0.1,0-0.1-0.1-0.2-0.1c-0.2-0.1-0.4-0.2-0.7-0.4l0,0c0,0,0,0,0,0l-38.3-18
		c-22.7-10.7-46.5-17.5-70.7-20.7c1.1-3.2,1.6-6.6,1.6-10c0-17.6-14.4-32-32-32s-32,14.4-32,32c0,3.5,0.6,6.8,1.6,10
		c-24.2,3.1-48,10-70.7,20.7L118.2,96H88c-3.1,0-5.9,1.8-7.2,4.6c-1.3,2.8-0.9,6.1,1.1,8.5l38.1,45.8V199L93.3,306l-8.4,33.6
		c-2.5,10.2-4.1,20.4-4.8,30.7c-2.8,44.5,12,88.8,41.9,123c0.9,1,2.1,1.8,3.4,2.3c0,0,0.1,0,0.1,0.1c0.4,0.1,0.9,0.2,1.3,0.3
		c0.4,0.1,0.8,0.1,1.2,0.1h256c0.4,0,0.8,0,1.3-0.1c0.1,0,0.3,0,0.4-0.1c0.1,0,0.2-0.1,0.3-0.1c0.2,0,0.4-0.1,0.5-0.1
		c0,0,0.1,0,0.1-0.1c1.3-0.5,2.4-1.2,3.4-2.3c29.9-34.2,44.7-78.5,41.9-123c-0.6-10.3-2.2-20.5-4.8-30.7l-3-12.1c0,0,0,0,0,0
		L392,199v-7h56v80c0,22.1,17.9,40,40,40c4.4,0,8-3.6,8-8V173.2C496,157.1,482.9,144,466.8,144z M256,32c8.8,0,16,7.2,16,16
		c0,3-0.9,5.9-2.4,8.4c-9-0.5-18.1-0.5-27.1,0c-1.6-2.5-2.4-5.4-2.4-8.4C240,39.2,247.2,32,256,32z M161.8,93.2
		c24.5-11.5,50.5-18.3,76.7-20.4c0.6,0,1.3,0,1.9-0.1c10.4-0.7,20.8-0.7,31.2,0c0.5,0.1,1,0.2,1.5,0.2c0.1,0,0.3,0,0.4,0
		c26.2,2.1,52.2,8.9,76.7,20.4l6,2.8H155.8L161.8,93.2z M105.1,112H120h262.6l-5.3,32H360H131.7L105.1,112z M376,160v32H136v-32h224
		H376z M411.6,343.4c1.1,4.5,2,9,2.8,13.5c1.2,7.6,1.8,15.1,1.9,22.7c0.3,36.3-12.2,71.9-35.9,100.3H131.7
		c-23.7-28.4-36.2-64-35.9-100.3c0.1-7.6,0.7-15.1,1.9-22.7c0.7-4.5,1.6-9.1,2.8-13.5l5.9-23.6l35.9,19.3c5.6,3,11.7,5,17.9,6.1V440
		c0,4.4,3.6,8,8,8c4.4,0,8-3.6,8-8v-94.3c6.2-0.7,12.3-2.3,18.1-5l74.6-34.8c11.9-5.6,26-5.2,37.6,1.1l56.9,30.7
		c14.8,8,32.3,9,47.8,3.2L411.6,343.4z M407,325.2c-11.6,4.9-25,4.4-36.3-1.7l-56.9-30.7c-16-8.6-35.5-9.2-52-1.5l-74.6,34.8
		c-3.6,1.7-7.4,2.8-11.3,3.4V312h32c4.4,0,8-3.6,8-8s-3.6-8-8-8h-32v-16h16c4.4,0,8-3.6,8-8s-3.6-8-8-8h-16v-16h32c4.4,0,8-3.6,8-8
		s-3.6-8-8-8h-32c0-4.4-3.6-8-8-8c-4.4,0-8,3.6-8,8v96.9c-3.5-0.8-7-2.1-10.3-3.9l-39.4-21.2l24-95.8h243.5L407,325.2z M480,294.6
		c-9.3-3.3-16-12.2-16-22.6v-88c0-4.4-3.6-8-8-8h-64v-16h74.8c7.3,0,13.2,5.9,13.2,13.2V294.6z M377.6,384.8
		C377.6,384.7,377.5,384.7,377.6,384.8c-14.1-14.1-39.8-11.8-61.3,5.3c-6.7-17.3-19.7-28.8-34.9-28.9c-0.1,0-0.1,0-0.2,0
		c0,0,0,0,0,0c-22.4,0-40,24.6-40,56c0,31.4,17.6,56,40,56l41.1-0.1c9.4,0,19.7-3,29.6-9.1c5.1-3.1,9.9-6.9,14.3-11.3
		c22.1-22,27.1-51.7,11.6-67.6C377.7,384.9,377.7,384.8,377.6,384.8z M277.9,456.7c-11.6-2.7-20.8-19.7-20.8-39.6
		c0-10.1,2.4-19.5,6.2-26.6c-0.7,11.6,3.3,23.4,12.2,32.2C284.8,432,285.6,446.5,277.9,456.7z M299.1,443.3
		c0.6-11.5-3.5-23.1-12.2-31.9c-9.2-9.2-10-23.8-2.4-33.9c11.5,2.8,20.7,19.8,20.7,39.6C305.1,427,302.8,436.2,299.1,443.3z
		 M314.6,448c4.1-8.8,6.5-19.4,6.5-30.9c0-3.2-0.2-6.3-0.5-9.4c0.1-0.1,0.2-0.3,0.4-0.4c1.7-1.7,3.4-3.2,5.2-4.6
		c0.1,0,0.1-0.1,0.2-0.1c5.8-4.7,12-7.9,17.9-9.6c-8.7,7.7-14.2,18.9-14.2,31.4C330,434.9,323.7,443.9,314.6,448z M354.9,441.3
		c-3.5,3.5-7.3,6.5-11.4,9c-3.8,2.3-7.7,4-11.4,5.2c8.5-7.7,13.8-18.8,13.8-31.1c0-13.1,9.7-23.9,22.3-25.7
		C374.4,408.8,368.9,427.3,354.9,441.3z"/><g display="none"><path d="M208,312h-32v17.6c3.9-0.6,7.7-1.7,11.3-3.4l74.6-34.8c16.5-7.7,35.9-7.1,52,1.5l56.9,30.7c11.2,6,24.7,6.6,36.3,1.7
			L377.8,208H134.2l-24,95.8l39.4,21.2c3.3,1.8,6.7,3,10.3,3.9V232c0-4.4,3.6-8,8-8c4.4,0,8,3.6,8,8h32c4.4,0,8,3.6,8,8s-3.6,8-8,8
			h-32v16h16c4.4,0,8,3.6,8,8s-3.6,8-8,8h-16v16h32c4.4,0,8,3.6,8,8S212.4,312,208,312z"/><polygon points="360 144 377.2 144 382.6 112 120 112 105.1 112 131.7 144"/><polygon points="360 160 136 160 136 192 376 192 376 160"/><path d="M269.6 56.4c1.6-2.5 2.4-5.4 2.4-8.4 0-8.8-7.2-16-16-16s-16 7.2-16 16c0 3 .9 5.9 2.4 8.4C251.5 55.9 260.5 55.9 269.6 56.4zM263.4 390.5c-3.9 7.1-6.2 16.5-6.2 26.6 0 19.9 9.2 36.9 20.8 39.6 7.7-10.2 6.9-24.7-2.4-34C266.7 413.9 262.7 402.1 263.4 390.5zM350.2 93.2c-24.5-11.5-50.5-18.3-76.7-20.4-.1 0-.3 0-.4 0-.5 0-1-.1-1.5-.2-10.4-.7-20.8-.7-31.2 0-.6.1-1.3.2-1.9.1-26.2 2.1-52.2 8.9-76.7 20.4l-6 2.8h200.4L350.2 93.2zM466.8 160H392v16h64c4.4 0 8 3.6 8 8v88c0 10.4 6.7 19.3 16 22.6V173.2C480 165.9 474.1 160 466.8 160zM284.5 377.5c-7.6 10.2-6.9 24.7 2.4 33.9 8.7 8.7 12.8 20.4 12.2 31.9 3.8-7.1 6.1-16.3 6.1-26.2C305.1 397.3 296 380.3 284.5 377.5z"/><path d="M411.6,343.4l-0.7-2.6c-15.5,5.8-33,4.7-47.8-3.2l-56.9-30.7c-11.6-6.2-25.7-6.7-37.6-1.1l-74.6,34.8
			c-5.8,2.7-11.9,4.3-18.1,5V440c0,4.4-3.6,8-8,8c-4.4,0-8-3.6-8-8v-94.8c-6.2-1-12.2-3-17.9-6.1l-35.9-19.3l-5.9,23.6
			c-1.1,4.5-2,9-2.8,13.5c-1.2,7.6-1.8,15.1-1.9,22.7C95.5,416,108,451.6,131.7,480h248.6c23.7-28.4,36.2-64,35.9-100.3
			c-0.1-7.6-0.7-15.1-1.9-22.7C413.7,352.5,412.7,347.9,411.6,343.4z M366.2,452.6c-4.4,4.4-9.2,8.2-14.3,11.3
			c-9.9,6.1-20.3,9.1-29.6,9.1l-41.1,0.1c-22.4,0-40-24.6-40-56c0-31.4,17.6-56,40-56c0,0,0,0,0,0c0.1,0,0.1,0,0.2,0
			c15.3,0.1,28.2,11.7,34.9,28.9c21.5-17.1,47.2-19.4,61.2-5.4c0,0,0,0,0.1,0.1c0.1,0.1,0.1,0.1,0.2,0.2
			C393.3,400.9,388.2,430.5,366.2,452.6z"/><path d="M344.2 392.9c-5.9 1.7-12.1 5-17.9 9.6-.1.1-.1.1-.2.1-1.8 1.4-3.5 3-5.2 4.6-.1.1-.2.3-.4.4.4 3 .5 6.2.5 9.4 0 11.5-2.4 22.1-6.5 30.9 9-4.1 15.3-13.1 15.3-23.7C330 411.8 335.5 400.6 344.2 392.9zM346 424.3c0 12.3-5.3 23.4-13.8 31.1 3.7-1.1 7.6-2.9 11.4-5.2 4-2.5 7.9-5.5 11.4-9 14-14 19.5-32.5 13.4-42.6C355.7 400.4 346 411.3 346 424.3z"/></g><g display="none"><circle cx="256" cy="48" r="24" fill="#32352E"/><path fill="#8A5E3C" d="M384,200H128L92.6,341.5C79.7,393.2,92.9,447.9,128,488l0,0h256l0,0
		c35.1-40.1,48.3-94.8,35.4-146.5L384,200z"/><path fill="#432716" d="M416.3,329.4L416.3,329.4c-15.1,9.1-33.8,9.5-49.3,1.1l-56.9-30.7c-13.9-7.5-30.5-8-44.8-1.3l-74.6,34.8
				c-14.3,6.7-30.9,6.2-44.8-1.3L101,307.9l-8.4,33.6C79.7,393.2,92.9,447.9,128,488h0h256l0,0c35.1-40.1,48.3-94.8,35.4-146.5
				L416.3,329.4z"/><path fill="#32352E" d="M456,152h-96v32h96v88c0,17.7,14.3,32,32,32l0,0V184v-10.8c0-11.7-9.5-21.2-21.2-21.2H456
		z"/><rect width="256" height="48" x="128" y="152" fill="#A1BDC1"/><polygon fill="#809699" points="384 152 128 152 88 104 392 104"/><path fill="#A1BDC1" d="M353.7,86l38.3,18H120l38.3-18C220.2,56.8,291.8,56.8,353.7,86z"/><path fill="#432716" d="M208 248h-40c-4.4 0-8-3.6-8-8s3.6-8 8-8h40c4.4 0 8 3.6 8 8S212.4 248 208 248zM208 312h-40c-4.4 0-8-3.6-8-8s3.6-8 8-8h40c4.4 0 8 3.6 8 8S212.4 312 208 312zM192 280h-24c-4.4 0-8-3.6-8-8s3.6-8 8-8h24c4.4 0 8 3.6 8 8S196.4 280 192 280z"/><path fill="#683C22" d="M326.6,408.3l-0.7-0.5c25.9-5.3,35-21.5,37.8-35.7c-15.4-13.3-42.7-8.6-62.3,11
		c-18.9,18.9-23.9,44.9-12.5,60.5C291.7,429.5,300.8,413.5,326.6,408.3z"/><path fill="#8A5E3C" d="M355.6,437.5c20.3-20.3,24.6-48.9,9.6-63.9c-0.5-0.5-1-1-1.6-1.4
		c-2.8,14.2-11.9,30.4-37.8,35.7l0.7,0.5c-25.7,5.2-34.9,21.2-37.7,35.4c0.9,1.2,1.8,2.3,2.9,3.4C306.7,462,335.3,457.8,355.6,437.5
		z"/><path fill="#683C22" d="M275.6,404l-0.8,0.2c14.6-22.1,9.6-39.9,1.5-52c-20.2,1.5-36.3,24.1-36.3,51.9
		c0,26.7,14.9,48.6,34,51.6C266,443.6,261.1,425.9,275.6,404z"/><path fill="#8A5E3C" d="M316.8,404.1c0-28.7-17.2-51.9-38.4-51.9c-0.7,0-1.4,0-2.1,0.1c8.1,12,13.1,29.9-1.5,52
		l0.8-0.2c-14.5,21.9-9.6,39.7-1.7,51.7c1.5,0.2,2.9,0.3,4.4,0.3C299.6,456,316.8,432.7,316.8,404.1z"/><path fill="#A1BDC1" d="M168,448c-4.4,0-8-3.6-8-8V232c0-4.4,3.6-8,8-8c4.4,0,8,3.6,8,8v208C176,444.4,172.4,448,168,448z"/></g><g display="none"><circle cx="256" cy="48" r="24" fill="#32352E"/><path fill="#8A5E3C" d="M384,200H128L92.6,341.5C79.7,393.2,92.9,447.9,128,488l0,0h256l0,0
		c35.1-40.1,48.3-94.8,35.4-146.5L384,200z"/><path fill="#432716" d="M416.3,329.4L416.3,329.4c-15.1,9.1-33.8,9.5-49.3,1.1l-56.9-30.7c-13.9-7.5-30.5-8-44.8-1.3l-74.6,34.8
				c-14.3,6.7-30.9,6.2-44.8-1.3L101,307.9l-8.4,33.6C79.7,393.2,92.9,447.9,128,488h0h256l0,0c35.1-40.1,48.3-94.8,35.4-146.5
				L416.3,329.4z"/><path fill="#32352E" d="M456,152h-96v32h96v88c0,17.7,14.3,32,32,32l0,0V184v-10.8c0-11.7-9.5-21.2-21.2-21.2H456
		z"/><rect width="256" height="48" x="128" y="152" fill="#A1BDC1"/><polygon fill="#809699" points="384 152 128 152 88 104 392 104"/><path fill="#A1BDC1" d="M353.7,86l38.3,18H120l38.3-18C220.2,56.8,291.8,56.8,353.7,86z"/><path fill="#432716" d="M208 248h-40c-4.4 0-8-3.6-8-8s3.6-8 8-8h40c4.4 0 8 3.6 8 8S212.4 248 208 248zM208 312h-40c-4.4 0-8-3.6-8-8s3.6-8 8-8h40c4.4 0 8 3.6 8 8S212.4 312 208 312zM192 280h-24c-4.4 0-8-3.6-8-8s3.6-8 8-8h24c4.4 0 8 3.6 8 8S196.4 280 192 280z"/><path fill="#683C22" d="M339,423.4l0.4,0.6c5-23.4,19.5-32.6,32.1-36.1c11.5,12.6,7,37.3-10.7,56.1
		c-16.9,18.1-40,24.5-53.7,15.5C319.7,455.9,334,446.6,339,423.4z"/><path fill="#8A5E3C" d="M313.6,399.8c18.2-19.5,43.6-25.4,56.6-13.2c0.4,0.4,0.9,0.8,1.2,1.3
		c-12.6,3.5-27.1,12.7-32.1,36.1l-0.4-0.6c-5,23.2-19.3,32.5-31.8,36c-1-0.7-2-1.5-2.9-2.3C291.2,444.9,295.4,419.2,313.6,399.8z"/><path fill="#683C22" d="M284.9,415.9l0.7,0.2c-13.1-20.4-8.6-36.9-1.3-48c18.1,1.4,32.5,22.3,32.5,47.9
		c0,24.6-13.3,44.9-30.4,47.7C293.5,452.6,297.9,436.1,284.9,415.9z"/><path fill="#8A5E3C" d="M248,416c0-26.5,15.4-48,34.4-48c0.6,0,1.3,0,1.9,0.1c-7.2,11.1-11.8,27.6,1.3,48
		l-0.7-0.2c13,20.2,8.6,36.7,1.5,47.8c-1.3,0.2-2.6,0.3-4,0.3C263.4,464,248,442.5,248,416z"/><path fill="#A1BDC1" d="M168,448c-4.4,0-8-3.6-8-8V232c0-4.4,3.6-8,8-8c4.4,0,8,3.6,8,8v208C176,444.4,172.4,448,168,448z"/><path d="M466.8,144h-73.4l6.4-38.7c0,0,0-0.1,0-0.1c0-0.2,0.1-0.4,0.1-0.7c0,0,0-0.1,0-0.1c0-0.3,0-0.5,0-0.8
		c0-0.1,0-0.1,0-0.2c0-0.2,0-0.4-0.1-0.6c0-0.1,0-0.2,0-0.2c0-0.2-0.1-0.4-0.1-0.6c0-0.1,0-0.1-0.1-0.2c-0.1-0.3-0.2-0.5-0.2-0.7
		c0,0,0-0.1,0-0.1c-0.1-0.2-0.2-0.4-0.3-0.6c0-0.1-0.1-0.1-0.1-0.2c-0.1-0.2-0.2-0.3-0.3-0.5c0-0.1-0.1-0.1-0.1-0.2
		c-0.3-0.4-0.6-0.8-1-1.2c0,0-0.1-0.1-0.2-0.1c-0.1-0.1-0.3-0.3-0.5-0.4c-0.1-0.1-0.1-0.1-0.2-0.2c-0.2-0.1-0.3-0.2-0.5-0.3
		c-0.1,0-0.1-0.1-0.2-0.1c-0.2-0.1-0.4-0.2-0.7-0.4l0,0c0,0,0,0,0,0l-38.3-18c-22.7-10.7-46.5-17.5-70.7-20.7
		c1.1-3.2,1.6-6.6,1.6-10c0-17.6-14.4-32-32-32s-32,14.4-32,32c0,3.5,0.6,6.8,1.6,10c-24.2,3.1-48,10-70.7,20.7L118.2,96H88
		c-3.1,0-5.9,1.8-7.2,4.6c-1.3,2.8-0.9,6.1,1.1,8.5l38.1,45.8V199L93.3,306l-8.4,33.6c-2.5,10.2-4.1,20.4-4.8,30.7
		c-2.8,44.5,12,88.8,41.9,123c0.9,1,2.1,1.8,3.4,2.3c0,0,0.1,0,0.1,0.1c0.4,0.1,0.9,0.2,1.3,0.3c0.4,0.1,0.8,0.1,1.2,0.1h256
		c0.4,0,0.8,0,1.3-0.1c0.1,0,0.3,0,0.4-0.1c0.1,0,0.2-0.1,0.3-0.1c0.2,0,0.4-0.1,0.5-0.1c0,0,0.1,0,0.1-0.1c1.3-0.5,2.4-1.2,3.4-2.3
		c29.9-34.2,44.7-78.5,41.9-123c-0.6-10.3-2.2-20.5-4.8-30.7l-3-12.1c0,0,0,0,0,0L392,199v-7h56v80c0,22.1,17.9,40,40,40
		c4.4,0,8-3.6,8-8V173.2C496,157.1,482.9,144,466.8,144z M176,312h32c4.4,0,8-3.6,8-8s-3.6-8-8-8h-32v-16h16c4.4,0,8-3.6,8-8
		s-3.6-8-8-8h-16v-16h32c4.4,0,8-3.6,8-8s-3.6-8-8-8h-32c0-4.4-3.6-8-8-8c-4.4,0-8,3.6-8,8v96.9c-3.5-0.8-7-2.1-10.3-3.9l-39.4-21.2
		l24-95.8h243.5L407,325.2c-11.6,4.9-25,4.4-36.3-1.7l-56.9-30.7c-16-8.6-35.5-9.2-52-1.5l-74.6,34.8c-3.6,1.7-7.4,2.8-11.3,3.4V312
		z M136,192v-32h224h16v32H136z M240,48c0-8.8,7.2-16,16-16s16,7.2,16,16c0,3-0.9,5.9-2.4,8.4c-9-0.5-18.1-0.5-27.1,0
		C240.9,53.9,240,51,240,48z M161.8,93.2c24.5-11.5,50.5-18.3,76.7-20.4c0.6,0,1.3,0,1.9-0.1c10.4-0.7,20.8-0.7,31.2,0
		c0.5,0.1,1,0.2,1.5,0.2c0.1,0,0.3,0,0.4,0c26.2,2.1,52.2,8.9,76.7,20.4l6,2.8H155.8L161.8,93.2z M120,112h262.6l-5.3,32H360H131.7
		l-26.7-32H120z M131.7,480c-23.7-28.4-36.2-64-35.9-100.3c0.1-7.6,0.7-15.1,1.9-22.7c0.7-4.5,1.6-9.1,2.8-13.5l5.9-23.6l35.9,19.3
		c5.6,3,11.7,5,17.9,6.1V440c0,4.4,3.6,8,8,8c4.4,0,8-3.6,8-8v-94.3c6.2-0.7,12.3-2.3,18.1-5l74.6-34.8c11.9-5.6,26-5.2,37.6,1.1
		l56.9,30.7c14.8,8,32.3,9,47.8,3.2l0.7,2.6c1.1,4.5,2,9,2.8,13.5c1.2,7.6,1.8,15.1,1.9,22.7c0.3,36.3-12.2,71.9-35.9,100.3H131.7z
		 M480,294.6c-9.3-3.3-16-12.2-16-22.6v-88c0-4.4-3.6-8-8-8h-64v-16h74.8c7.3,0,13.2,5.9,13.2,13.2V294.6z"/><path d="M377.8,385c-0.1-0.1-0.1-0.1-0.2-0.2c0,0,0,0-0.1-0.1c-14-14-39.8-11.8-61.2,5.4
		c-6.7-17.3-19.7-28.8-34.9-28.9c-0.1,0-0.1,0-0.2,0c0,0,0,0,0,0c-22.4,0-40,24.6-40,56c0,31.4,17.6,56,40,56l41.1-0.1
		c9.4,0,19.7-3,29.6-9.1c5.1-3.1,9.9-6.9,14.3-11.3C388.2,430.5,393.3,400.9,377.8,385z M277.9,456.7c-11.6-2.7-20.8-19.7-20.8-39.6
		c0-10.1,2.4-19.5,6.2-26.6c-0.7,11.6,3.3,23.4,12.2,32.2C284.8,432,285.6,446.5,277.9,456.7z M299.1,443.3
		c0.6-11.5-3.5-23.1-12.2-31.9c-9.2-9.2-10-23.8-2.4-33.9c11.5,2.8,20.7,19.8,20.7,39.6C305.1,427,302.8,436.2,299.1,443.3z
		 M314.6,448c4.1-8.8,6.5-19.4,6.5-30.9c0-3.2-0.2-6.3-0.5-9.4c0.1-0.1,0.2-0.3,0.4-0.4c1.7-1.7,3.4-3.2,5.2-4.6
		c0.1,0,0.1-0.1,0.2-0.1c5.8-4.7,12-7.9,17.9-9.6c-8.7,7.7-14.2,18.9-14.2,31.4C330,434.9,323.7,443.9,314.6,448z M354.9,441.3
		c-3.5,3.5-7.3,6.5-11.4,9c-3.8,2.3-7.7,4-11.4,5.2c8.5-7.7,13.8-18.8,13.8-31.1c0-13.1,9.7-23.9,22.3-25.7
		C374.4,408.8,368.9,427.3,354.9,441.3z"/></g></svg>