<svg xmlns="http://www.w3.org/2000/svg" viewBox="0 0 32 32"><g data-name="coffee tree"><path fill="#ffb92c" d="M25,30c-6.14-3.88-12.15-4.12-18,0"/><path fill="#201a1a" d="M16,29a1,1,0,0,1-1-1V15.94c.05-4.33,1.19-7.72,3.37-10.09C20.72,3.3,24.24,2,28.82,2H29a1,1,0,0,1,.71.29A1,1,0,0,1,30,3c0,9.21-4.14,13.68-13,14V28A1,1,0,0,1,16,29ZM28,4c-3.58.14-6.32,1.21-8.14,3.19C18.16,9,17.22,11.64,17,15,24.38,14.7,27.71,11.37,28,4Z"/><path fill="#ffb92c" d="M14,17a3,3,0,1,0,3,3A3,3,0,0,0,14,17Zm-.5,5a.5.5,0,1,1,.5-.5A.5.5,0,0,1,13.5,22Z"/><path fill="#201a1a" d="M15 19C8.61 19 2 13.76 2 5A1 1 0 0 1 3 4c5.56 0 9.78 2.33 11.89 6.55a1 1 0 0 1-1.78.9C11.48 8.19 8.28 6.29 4 6c.48 6.89 5.81 11 11 11a1 1 0 0 1 0 2zM20 13a.91.91 0 0 1-.39-.08 1 1 0 0 1-.53-1.31 9.88 9.88 0 0 1 5.55-5.54 1 1 0 0 1 .75 1.86 7.78 7.78 0 0 0-4.46 4.46A1 1 0 0 1 20 13z"/><path fill="#ffb92c" d="M19,15a4,4,0,1,0,4,4A4,4,0,0,0,19,15Zm1,4a1,1,0,1,1,1-1A1,1,0,0,1,20,19Z"/></g></svg>