<svg xmlns="http://www.w3.org/2000/svg" enable-background="new 0 0 512 512" viewBox="0 0 512 512"><g display="none"><path fill="#C4C2C2" stroke="#000" stroke-linecap="round" stroke-linejoin="round" stroke-miterlimit="10" stroke-width="16" d="
		M184,304h-80h-8.2C82.7,304,72,314.7,72,327.8v8.2v64l0,0c17.7,0,32-14.3,32-32v-32h80V304z"/><path fill="#C4C2C2" stroke="#000" stroke-linecap="round" stroke-linejoin="round" stroke-miterlimit="10" stroke-width="16" d="
		M360,280H152l-15.2,81.3c-5.7,30.3-1.3,61.6,12.5,89.2l2.7,5.5h208l2.7-5.5c13.8-27.6,18.2-58.9,12.5-89.2L360,280z"/><path fill="#C4C2C2" stroke="#000" stroke-linecap="round" stroke-linejoin="round" stroke-miterlimit="10" stroke-width="16" d="
		M346.9,338.5L346.9,338.5c-9.3-13-28.6-13-37.8,0l-2.2,3c-9.3,13-28.6,13-37.8,0l-2.2-3c-9.3-13-28.6-13-37.8,0l-2.2,3
		c-9.3,13-28.6,13-37.8,0l-3.8-5.4c-8.8-12.3-26.7-13.1-36.6-1.6l-8.8,10.3l-3.1,16.4c-5.7,30.3-1.3,61.6,12.5,89.2l2.7,5.5h208
		l2.7-5.5c13.8-27.6,18.2-58.9,12.5-89.2l-2.6-14.1C363.6,349.9,353.1,347.1,346.9,338.5z"/><path fill="#C4C2C2" stroke="#000" stroke-linecap="round" stroke-linejoin="round" stroke-miterlimit="10" stroke-width="16" d="
		M137.3,416c2.5,11.9,6.5,23.5,12,34.5l2.7,5.5h208l2.7-5.5c5.5-11,9.5-22.6,12-34.5H137.3z"/><rect width="464" height="32" x="24" y="456" fill="#C4C2C2" stroke="#000" stroke-linecap="round" stroke-linejoin="round" stroke-miterlimit="10" stroke-width="16"/><path fill="#C4C2C2" stroke="#000" stroke-linecap="round" stroke-linejoin="round" stroke-miterlimit="10" stroke-width="16" d="
		M464,456h-32V40c0-8.8,7.2-16,16-16l0,0c8.8,0,16,7.2,16,16V456z"/><rect width="48" height="80" x="424" y="96" fill="#C4C2C2" stroke="#000" stroke-linecap="round" stroke-linejoin="round" stroke-miterlimit="10" stroke-width="16"/><polygon fill="#C4C2C2" stroke="#000" stroke-linecap="round" stroke-linejoin="round" stroke-miterlimit="10" stroke-width="16" points="128 24 384 24 256 208"/><polygon fill="#C4C2C2" stroke="#000" stroke-linecap="round" stroke-linejoin="round" stroke-miterlimit="10" stroke-width="16" points="360 280 152 280 152 248 384 248"/><path fill="#C4C2C2" stroke="#000" stroke-linecap="round" stroke-linejoin="round" stroke-miterlimit="10" stroke-width="16" d="
		M120,120h304v32H120c-8.8,0-16-7.2-16-16l0,0C104,127.2,111.2,120,120,120z"/><line x1="256" x2="256" y1="56" y2="88" fill="#C4C2C2" stroke="#000" stroke-linecap="round" stroke-linejoin="round" stroke-miterlimit="10" stroke-width="16"/><line x1="304" x2="288" y1="56" y2="88" fill="#C4C2C2" stroke="#000" stroke-linecap="round" stroke-linejoin="round" stroke-miterlimit="10" stroke-width="16"/><line x1="208" x2="224" y1="56" y2="88" fill="#C4C2C2" stroke="#000" stroke-linecap="round" stroke-linejoin="round" stroke-miterlimit="10" stroke-width="16"/></g><g display="none"><path d="M488,448h-16V184c4.4,0,8-3.6,8-8V96c0-4.4-3.6-8-8-8V40c0-6.4-2.5-12.4-7-17c-4.5-4.5-10.6-7-17-7c-13.2,0-24,10.8-24,24
			v48c-4.4,0-8,3.6-8,8v16h-83.5l58-83.4c1.7-2.4,1.9-5.6,0.5-8.3c-1.4-2.6-4.1-4.3-7.1-4.3H128c-3,0-5.7,1.7-7.1,4.3
			c-1.4,2.6-1.2,5.8,0.5,8.3l58,83.4H120c-13.2,0-24,10.8-24,24s10.8,24,24,24h92.9l36.6,52.6c1.5,2.1,3.9,3.4,6.6,3.4
			c2.6,0,5.1-1.3,6.6-3.4l36.6-52.6H416v16c0,4.4,3.6,8,8,8v264h-51.2c0.3-0.8,0.7-1.5,1-2.3c0.2-0.5,0.4-0.9,0.6-1.4
			c0.3-0.8,0.6-1.5,0.9-2.3c1-2.5,1.9-5,2.7-7.5c0,0,0,0,0,0c1.8-5.5,3.4-11.1,4.6-16.9c0.1-0.2,0.1-0.5,0.1-0.7
			c3.8-18.7,4-38.2,0.4-57.1l-14.6-78c0,0,0.1,0,0.1,0l21.8-29c1.8-2.4,2.1-5.7,0.8-8.4c-1.4-2.7-4.1-4.4-7.2-4.4H152
			c-4.4,0-8,3.6-8,8v31.3l-3.1,16.7h-45C78.3,296,64,310.3,64,327.8V400c0,4.4,3.6,8,8,8c10.7,0,20.7-4.2,28.3-11.7
			c7.6-7.6,11.7-17.6,11.7-28.3v-24h19.9l-3,15.8c-3.5,18.9-3.3,38.3,0.4,57.1c0,0.2,0.1,0.5,0.1,0.7c1.2,5.7,2.7,11.3,4.5,16.8
			c0,0,0,0,0,0.1c0.8,2.5,1.7,5,2.7,7.5c0.3,0.8,0.6,1.5,0.9,2.3c0.2,0.5,0.4,0.9,0.6,1.4c0.3,0.8,0.7,1.6,1,2.3H24
			c-4.4,0-8,3.6-8,8v32c0,4.4,3.6,8,8,8h464c4.4,0,8-3.6,8-8v-32C496,451.6,492.4,448,488,448z M432,168v-16v-32v-16h32v64H432z
			 M440,40c0-4.4,3.6-8,8-8c2.1,0,4.2,0.8,5.7,2.3c1.5,1.5,2.3,3.5,2.3,5.7v48h-16V40z M143.3,32h225.4L313,112H199L143.3,32z
			 M256,194l-23.6-34h47.3L256,194z M120,144c-4.4,0-8-3.6-8-8s3.6-8,8-8h296v16H120z M440,184h16v264h-16V184z M156.4,446.9
			c-0.8-1.5-1.5-3-2.2-4.6c-0.1-0.2-0.1-0.3-0.2-0.5c-0.7-1.6-1.4-3.1-2-4.7c0-0.1-0.1-0.2-0.1-0.2c-1.7-4.2-3.1-8.6-4.4-12.9h216.9
			c-1.2,4.4-2.7,8.7-4.4,12.9c0,0.1-0.1,0.2-0.1,0.2c-0.6,1.6-1.3,3.1-2,4.7c-0.1,0.2-0.1,0.3-0.2,0.5c-0.7,1.5-1.4,3.1-2.2,4.6
			l-0.5,1.1H156.9L156.4,446.9z M368,408H144c-1-6.1-1.5-12.2-1.6-18.3c-0.2-9,0.6-18,2.2-26.9l2.7-14.3l7.5-8.7
			c3.1-3.6,7.5-5.5,12.2-5.3c4.7,0.2,9,2.5,11.7,6.4l3.8,5.4c5.9,8.3,15.2,13.1,25.4,13.1c0,0,0,0,0,0c10.2,0,19.5-4.8,25.4-13.1
			l2.2-3c2.9-4.1,7.4-6.4,12.4-6.4s9.5,2.3,12.4,6.4l2.2,3c5.9,8.3,15.2,13.1,25.4,13.1c0,0,0,0,0,0c10.2,0,19.5-4.8,25.4-13.1
			l2.2-3c2.9-4.1,7.4-6.4,12.4-6.4s9.5,2.3,12.4,6.4c6,8.4,15.7,13.2,25.7,13.1l1.2,6.6C370.2,377.7,370.3,393,368,408z M363.1,340
			c-3.8-0.7-7.3-2.8-9.7-6.2c-5.9-8.3-15.2-13.1-25.4-13.1c-10.2,0-19.5,4.8-25.4,13.1l-2.2,3c-2.9,4.1-7.4,6.4-12.4,6.4
			s-9.5-2.3-12.4-6.4l-2.2-3c-5.9-8.3-15.2-13.1-25.4-13.1c-10.2,0-19.5,4.8-25.4,13.1l-2.2,3c-2.9,4.1-7.4,6.4-12.4,6.4
			s-9.5-2.3-12.4-6.4l-3.8-5.4c-5.6-7.9-14.4-12.6-24-13.1c-5.4-0.2-10.7,0.9-15.4,3.3l6.3-33.7h8.1h186.6L363.1,340z M160,256h208
			l-12,16H160V256z M104,328c-4.4,0-8,3.6-8,8v32c0,6.4-2.5,12.4-7,17c-2.6,2.6-5.6,4.5-9,5.7v-62.8c0-8.7,7.1-15.8,15.8-15.8h42
			l-3,16H104z M480,480H32v-16h120h208h120V480z"/><path d="M256 48c-4.4 0-8 3.6-8 8v32c0 4.4 3.6 8 8 8 4.4 0 8-3.6 8-8V56C264 51.6 260.4 48 256 48zM307.6 48.8c-4-2-8.8-.4-10.7 3.6l-16 32c-2 4-.4 8.8 3.6 10.7 1.1.6 2.4.8 3.6.8 2.9 0 5.8-1.6 7.2-4.4l16-32C313.1 55.6 311.5 50.8 307.6 48.8zM215.2 52.4c-2-4-6.8-5.6-10.7-3.6-4 2-5.6 6.8-3.6 10.7l16 32c1.4 2.8 4.2 4.4 7.2 4.4 1.2 0 2.4-.3 3.6-.8 4-2 5.6-6.8 3.6-10.7L215.2 52.4z"/></g><linearGradient id="a" x1="44.343" x2="502.977" y1="519.657" y2="61.023" gradientUnits="userSpaceOnUse"><stop offset="0" stop-color="#12c2e9"/><stop offset=".533" stop-color="#c471ed"/><stop offset="1" stop-color="#f64f59"/></linearGradient><path fill="url(#a)" d="M488,448h-16V184c4.4,0,8-3.6,8-8V96c0-4.4-3.6-8-8-8V40c0-6.4-2.5-12.4-7-17c-4.5-4.5-10.6-7-17-7
		c-13.2,0-24,10.8-24,24v48c-4.4,0-8,3.6-8,8v16h-83.5l58-83.4c1.7-2.4,1.9-5.6,0.5-8.3c-1.4-2.6-4.1-4.3-7.1-4.3H128
		c-3,0-5.7,1.7-7.1,4.3c-1.4,2.6-1.2,5.8,0.5,8.3l58,83.4H120c-13.2,0-24,10.8-24,24s10.8,24,24,24h92.9l36.6,52.6
		c1.5,2.1,3.9,3.4,6.6,3.4c2.6,0,5.1-1.3,6.6-3.4l36.6-52.6H416v16c0,4.4,3.6,8,8,8v264h-51.2c0.3-0.8,0.7-1.5,1-2.3
		c0.2-0.5,0.4-0.9,0.6-1.4c0.3-0.8,0.6-1.5,0.9-2.3c1-2.5,1.9-5,2.7-7.5c0,0,0,0,0,0c1.8-5.5,3.4-11.1,4.6-16.9
		c0.1-0.2,0.1-0.5,0.1-0.7c3.8-18.7,4-38.2,0.4-57.1l-14.6-78c0,0,0.1,0,0.1,0l21.8-29c1.8-2.4,2.1-5.7,0.8-8.4
		c-1.4-2.7-4.1-4.4-7.2-4.4H152c-4.4,0-8,3.6-8,8v31.3l-3.1,16.7h-45C78.3,296,64,310.3,64,327.8V400c0,4.4,3.6,8,8,8
		c10.7,0,20.7-4.2,28.3-11.7c7.6-7.6,11.7-17.6,11.7-28.3v-24h19.9l-3,15.8c-3.5,18.9-3.3,38.3,0.4,57.1c0,0.2,0.1,0.5,0.1,0.7
		c1.2,5.7,2.7,11.3,4.5,16.8c0,0,0,0,0,0.1c0.8,2.5,1.7,5,2.7,7.5c0.3,0.8,0.6,1.5,0.9,2.3c0.2,0.5,0.4,0.9,0.6,1.4
		c0.3,0.8,0.7,1.6,1,2.3H24c-4.4,0-8,3.6-8,8v32c0,4.4,3.6,8,8,8h464c4.4,0,8-3.6,8-8v-32C496,451.6,492.4,448,488,448z M432,168
		v-16v-32v-16h32v64H432z M440,40c0-4.4,3.6-8,8-8c2.1,0,4.2,0.8,5.7,2.3c1.5,1.5,2.3,3.5,2.3,5.7v48h-16V40z M143.3,32h225.4
		L313,112H199L143.3,32z M256,194l-23.6-34h47.3L256,194z M120,144c-4.4,0-8-3.6-8-8s3.6-8,8-8h296v16H120z M440,184h16v264h-16V184
		z M156.4,446.9c-0.8-1.5-1.5-3-2.2-4.6c-0.1-0.2-0.1-0.3-0.2-0.5c-0.7-1.6-1.4-3.1-2-4.7c0-0.1-0.1-0.2-0.1-0.2
		c-1.7-4.2-3.1-8.6-4.4-12.9h216.9c-1.2,4.4-2.7,8.7-4.4,12.9c0,0.1-0.1,0.2-0.1,0.2c-0.6,1.6-1.3,3.1-2,4.7
		c-0.1,0.2-0.1,0.3-0.2,0.5c-0.7,1.5-1.4,3.1-2.2,4.6l-0.5,1.1H156.9L156.4,446.9z M368,408H144c-1-6.1-1.5-12.2-1.6-18.3
		c-0.2-9,0.6-18,2.2-26.9l2.7-14.3l7.5-8.7c3.1-3.6,7.5-5.5,12.2-5.3c4.7,0.2,9,2.5,11.7,6.4l3.8,5.4c5.9,8.3,15.2,13.1,25.4,13.1
		c0,0,0,0,0,0c10.2,0,19.5-4.8,25.4-13.1l2.2-3c2.9-4.1,7.4-6.4,12.4-6.4s9.5,2.3,12.4,6.4l2.2,3c5.9,8.3,15.2,13.1,25.4,13.1
		c0,0,0,0,0,0c10.2,0,19.5-4.8,25.4-13.1l2.2-3c2.9-4.1,7.4-6.4,12.4-6.4s9.5,2.3,12.4,6.4c6,8.4,15.7,13.2,25.7,13.1l1.2,6.6
		C370.2,377.7,370.3,393,368,408z M363.1,340c-3.8-0.7-7.3-2.8-9.7-6.2c-5.9-8.3-15.2-13.1-25.4-13.1c-10.2,0-19.5,4.8-25.4,13.1
		l-2.2,3c-2.9,4.1-7.4,6.4-12.4,6.4s-9.5-2.3-12.4-6.4l-2.2-3c-5.9-8.3-15.2-13.1-25.4-13.1c-10.2,0-19.5,4.8-25.4,13.1l-2.2,3
		c-2.9,4.1-7.4,6.4-12.4,6.4s-9.5-2.3-12.4-6.4l-3.8-5.4c-5.6-7.9-14.4-12.6-24-13.1c-5.4-0.2-10.7,0.9-15.4,3.3l6.3-33.7h8.1h186.6
		L363.1,340z M160,256h208l-12,16H160V256z M104,328c-4.4,0-8,3.6-8,8v32c0,6.4-2.5,12.4-7,17c-2.6,2.6-5.6,4.5-9,5.7v-62.8
		c0-8.7,7.1-15.8,15.8-15.8h42l-3,16H104z M480,480H32v-16h120h208h120V480z M256,48c-4.4,0-8,3.6-8,8v32c0,4.4,3.6,8,8,8
		c4.4,0,8-3.6,8-8V56C264,51.6,260.4,48,256,48z M307.6,48.8c-4-2-8.8-0.4-10.7,3.6l-16,32c-2,4-0.4,8.8,3.6,10.7
		c1.1,0.6,2.4,0.8,3.6,0.8c2.9,0,5.8-1.6,7.2-4.4l16-32C313.1,55.6,311.5,50.8,307.6,48.8z M215.2,52.4c-2-4-6.8-5.6-10.7-3.6
		c-4,2-5.6,6.8-3.6,10.7l16,32c1.4,2.8,4.2,4.4,7.2,4.4c1.2,0,2.4-0.3,3.6-0.8c4-2,5.6-6.8,3.6-10.7L215.2,52.4z"/><g display="none"><path d="M120 144h296v-16H120c-4.4 0-8 3.6-8 8S115.6 144 120 144zM456 40c0-2.1-.8-4.2-2.3-5.7-1.5-1.5-3.5-2.3-5.7-2.3-4.4 0-8 3.6-8 8v48h16V40zM367.4 362.8l-1.2-6.6c-10.1.1-19.7-4.6-25.7-13.1-2.9-4.1-7.4-6.4-12.4-6.4s-9.5 2.3-12.4 6.4l-2.2 3c-5.9 8.3-15.2 13.1-25.4 13.1 0 0 0 0 0 0-10.2 0-19.5-4.8-25.4-13.1l-2.2-3c-2.9-4.1-7.4-6.4-12.4-6.4s-9.5 2.3-12.4 6.4l-2.2 3c-5.9 8.3-15.2 13.1-25.4 13.1 0 0 0 0 0 0-10.2 0-19.5-4.8-25.4-13.1l-3.8-5.4c-2.7-3.8-7-6.2-11.7-6.4-4.7-.2-9.2 1.7-12.2 5.3l-7.5 8.7-2.7 14.3c-1.7 8.9-2.4 17.9-2.2 26.9.1 6.1.7 12.3 1.6 18.3h224C370.3 393 370.2 377.7 367.4 362.8z"/><polygon points="472 96 424 96 424 116 424 156 424 176 472 176"/><rect width="16" height="264" x="440" y="184"/><path d="M313 112l55.6-80H143.3l55.6 80H313zM280.8 84.4l16-32c2-4 6.8-5.6 10.7-3.6 4 2 5.6 6.8 3.6 10.7l-16 32c-1.4 2.8-4.2 4.4-7.2 4.4-1.2 0-2.4-.3-3.6-.8C280.5 93.2 278.9 88.4 280.8 84.4zM248 56c0-4.4 3.6-8 8-8 4.4 0 8 3.6 8 8v32c0 4.4-3.6 8-8 8-4.4 0-8-3.6-8-8V56zM204.4 48.8c4-2 8.8-.4 10.7 3.6l16 32c2 4 .4 8.8-3.6 10.7-1.1.6-2.4.8-3.6.8-2.9 0-5.8-1.6-7.2-4.4l-16-32C198.9 55.6 200.5 50.8 204.4 48.8zM96 368v-32c0-4.4 3.6-8 8-8h30.9l3-16h-42c-8.7 0-15.8 7.1-15.8 15.8v62.8c3.3-1.2 6.4-3.1 9-5.7C93.5 380.4 96 374.4 96 368zM152.3 321.7c4.7-2.4 10-3.5 15.4-3.3 9.7.4 18.4 5.2 24 13.1l3.8 5.4c2.9 4.1 7.4 6.4 12.4 6.4s9.5-2.3 12.4-6.4l2.2-3c5.9-8.3 15.2-13.1 25.4-13.1 10.2 0 19.5 4.8 25.4 13.1l2.2 3c2.9 4.1 7.4 6.4 12.4 6.4s9.5-2.3 12.4-6.4l2.2-3c5.9-8.3 15.2-13.1 25.4-13.1 10.2 0 19.5 4.8 25.4 13.1 2.4 3.4 5.9 5.5 9.7 6.2l-9.7-52H166.7h-8.1L152.3 321.7z"/><polygon points="360 464 152 464 32 464 32 480 480 480 480 464"/><polygon points="160 272 356 272 368 256 160 256"/><path d="M152,437.2c0.6,1.6,1.3,3.1,2,4.7c0.1,0.2,0.1,0.3,0.2,0.5c0.7,1.5,1.4,3.1,2.2,4.6l0.5,1.1h198.1l0.5-1.1
			c0.8-1.5,1.5-3,2.2-4.6c0.1-0.2,0.1-0.3,0.2-0.5c0.7-1.6,1.4-3.1,2-4.7c0-0.1,0.1-0.2,0.1-0.2c1.7-4.2,3.1-8.6,4.4-12.9H147.5
			c1.2,4.4,2.7,8.7,4.4,12.9C152,437,152,437.1,152,437.2z"/><polygon points="232.4 160 256 194 279.6 160"/></g><g display="none"><path fill="#32352E" d="M184,304h-80h-8.2C82.7,304,72,314.7,72,327.8v8.2v64l0,0c17.7,0,32-14.3,32-32v-32h80
		V304z"/><path fill="#A1BDC1" d="M360,280H152l-15.2,81.3c-5.7,30.3-1.3,61.6,12.5,89.2l2.7,5.5h208l2.7-5.5
		c13.8-27.6,18.2-58.9,12.5-89.2L360,280z"/><path fill="#8A5E3C" d="M346.9,338.5L346.9,338.5c-9.3-13-28.6-13-37.8,0l-2.2,3c-9.3,13-28.6,13-37.8,0l-2.2-3
		c-9.3-13-28.6-13-37.8,0l-2.2,3c-9.3,13-28.6,13-37.8,0l-3.8-5.4c-8.8-12.3-26.7-13.1-36.6-1.6l-8.8,10.3l-3.1,16.4
		c-5.7,30.3-1.3,61.6,12.5,89.2l2.7,5.5h208l2.7-5.5c13.8-27.6,18.2-58.9,12.5-89.2l-2.6-14.1C363.6,349.9,353.1,347.1,346.9,338.5z
		"/><path fill="#432716" d="M137.3,416c2.5,11.9,6.5,23.5,12,34.5l2.7,5.5h208l2.7-5.5c5.5-11,9.5-22.6,12-34.5H137.3
		z"/><rect width="464" height="32" x="24" y="456" fill="#32352E"/><path fill="#32352E" d="M464,456h-32V40c0-8.8,7.2-16,16-16l0,0c8.8,0,16,7.2,16,16V456z"/><rect width="48" height="80" x="424" y="96" fill="#432716"/><polygon fill="#A1BDC1" points="128 24 384 24 256 208"/><polygon fill="#89A0A4" points="360 280 152 280 152 248 384 248"/><path fill="#32352E" d="M120,120h304v32H120c-8.8,0-16-7.2-16-16l0,0C104,127.2,111.2,120,120,120z"/><path fill="#8A5E3C" d="M256 96c-4.4 0-8-3.6-8-8V56c0-4.4 3.6-8 8-8 4.4 0 8 3.6 8 8v32C264 92.4 260.4 96 256 96zM288 96c-1.2 0-2.4-.3-3.6-.8-4-2-5.6-6.8-3.6-10.7l16-32c2-4 6.8-5.6 10.7-3.6 4 2 5.6 6.8 3.6 10.7l-16 32C293.8 94.4 290.9 96 288 96zM224 96c-2.9 0-5.8-1.6-7.2-4.4l-16-32c-2-4-.4-8.8 3.6-10.7 4-2 8.8-.4 10.7 3.6l16 32c2 4 .4 8.8-3.6 10.7C226.4 95.7 225.2 96 224 96z"/></g><g display="none"><path fill="#32352E" d="M184,304h-80h-8.2C82.7,304,72,314.7,72,327.8v8.2v64l0,0c17.7,0,32-14.3,32-32v-32h80
		V304z"/><path fill="#A1BDC1" d="M360,280H152l-15.2,81.3c-5.7,30.3-1.3,61.6,12.5,89.2l2.7,5.5h208l2.7-5.5
		c13.8-27.6,18.2-58.9,12.5-89.2L360,280z"/><path fill="#8A5E3C" d="M346.9,338.5L346.9,338.5c-9.3-13-28.6-13-37.8,0l-2.2,3c-9.3,13-28.6,13-37.8,0l-2.2-3
		c-9.3-13-28.6-13-37.8,0l-2.2,3c-9.3,13-28.6,13-37.8,0l-3.8-5.4c-8.8-12.3-26.7-13.1-36.6-1.6l-8.8,10.3l-3.1,16.4
		c-5.7,30.3-1.3,61.6,12.5,89.2l2.7,5.5h208l2.7-5.5c13.8-27.6,18.2-58.9,12.5-89.2l-2.6-14.1C363.6,349.9,353.1,347.1,346.9,338.5z
		"/><path fill="#432716" d="M137.3,416c2.5,11.9,6.5,23.5,12,34.5l2.7,5.5h208l2.7-5.5c5.5-11,9.5-22.6,12-34.5H137.3
		z"/><rect width="464" height="32" x="24" y="456" fill="#32352E"/><path fill="#32352E" d="M464,456h-32V40c0-8.8,7.2-16,16-16l0,0c8.8,0,16,7.2,16,16V456z"/><rect width="48" height="80" x="424" y="96" fill="#432716"/><polygon fill="#A1BDC1" points="128 24 384 24 256 208"/><polygon fill="#89A0A4" points="360 280 152 280 152 248 384 248"/><path fill="#32352E" d="M120,120h304v32H120c-8.8,0-16-7.2-16-16l0,0C104,127.2,111.2,120,120,120z"/><path fill="#8A5E3C" d="M256 96c-4.4 0-8-3.6-8-8V56c0-4.4 3.6-8 8-8 4.4 0 8 3.6 8 8v32C264 92.4 260.4 96 256 96zM288 96c-1.2 0-2.4-.3-3.6-.8-4-2-5.6-6.8-3.6-10.7l16-32c2-4 6.8-5.6 10.7-3.6 4 2 5.6 6.8 3.6 10.7l-16 32C293.8 94.4 290.9 96 288 96zM224 96c-2.9 0-5.8-1.6-7.2-4.4l-16-32c-2-4-.4-8.8 3.6-10.7 4-2 8.8-.4 10.7 3.6l16 32c2 4 .4 8.8-3.6 10.7C226.4 95.7 225.2 96 224 96z"/><path d="M488,448h-16V184c4.4,0,8-3.6,8-8V96c0-4.4-3.6-8-8-8V40c0-6.4-2.5-12.4-7-17c-4.5-4.5-10.6-7-17-7c-13.2,0-24,10.8-24,24
			v48c-4.4,0-8,3.6-8,8v16h-83.5l58-83.4c1.7-2.4,1.9-5.6,0.5-8.3c-1.4-2.6-4.1-4.3-7.1-4.3H128c-3,0-5.7,1.7-7.1,4.3
			c-1.4,2.6-1.2,5.8,0.5,8.3l58,83.4H120c-13.2,0-24,10.8-24,24s10.8,24,24,24h92.9l36.6,52.6c1.5,2.1,3.9,3.4,6.6,3.4
			c2.6,0,5.1-1.3,6.6-3.4l36.6-52.6H416v16c0,4.4,3.6,8,8,8v264h-51.2c0.3-0.8,0.7-1.5,1-2.3c0.2-0.5,0.4-0.9,0.6-1.4
			c0.3-0.8,0.6-1.5,0.9-2.3c1-2.5,1.9-5,2.7-7.5c0,0,0,0,0,0c1.8-5.5,3.4-11.1,4.6-16.9c0.1-0.2,0.1-0.5,0.1-0.7
			c3.8-18.7,4-38.2,0.4-57.1l-14.6-78c0,0,0.1,0,0.1,0l21.8-29c1.8-2.4,2.1-5.7,0.8-8.4c-1.4-2.7-4.1-4.4-7.2-4.4H152
			c-4.4,0-8,3.6-8,8v31.3l-3.1,16.7h-45C78.3,296,64,310.3,64,327.8V400c0,4.4,3.6,8,8,8c10.7,0,20.7-4.2,28.3-11.7
			c7.6-7.6,11.7-17.6,11.7-28.3v-24h19.9l-3,15.8c-3.5,18.9-3.3,38.3,0.4,57.1c0,0.2,0.1,0.5,0.1,0.7c1.2,5.7,2.7,11.3,4.5,16.8
			c0,0,0,0,0,0.1c0.8,2.5,1.7,5,2.7,7.5c0.3,0.8,0.6,1.5,0.9,2.3c0.2,0.5,0.4,0.9,0.6,1.4c0.3,0.8,0.7,1.6,1,2.3H24
			c-4.4,0-8,3.6-8,8v32c0,4.4,3.6,8,8,8h464c4.4,0,8-3.6,8-8v-32C496,451.6,492.4,448,488,448z M432,168v-16v-32v-16h32v64H432z
			 M440,40c0-4.4,3.6-8,8-8c2.1,0,4.2,0.8,5.7,2.3c1.5,1.5,2.3,3.5,2.3,5.7v48h-16V40z M143.3,32h225.4L313,112H199L143.3,32z
			 M256,194l-23.6-34h47.3L256,194z M120,144c-4.4,0-8-3.6-8-8s3.6-8,8-8h296v16H120z M440,184h16v264h-16V184z M156.4,446.9
			c-0.8-1.5-1.5-3-2.2-4.6c-0.1-0.2-0.1-0.3-0.2-0.5c-0.7-1.6-1.4-3.1-2-4.7c0-0.1-0.1-0.2-0.1-0.2c-1.7-4.2-3.1-8.6-4.4-12.9h216.9
			c-1.2,4.4-2.7,8.7-4.4,12.9c0,0.1-0.1,0.2-0.1,0.2c-0.6,1.6-1.3,3.1-2,4.7c-0.1,0.2-0.1,0.3-0.2,0.5c-0.7,1.5-1.4,3.1-2.2,4.6
			l-0.5,1.1H156.9L156.4,446.9z M368,408H144c-1-6.1-1.5-12.2-1.6-18.3c-0.2-9,0.6-18,2.2-26.9l2.7-14.3l7.5-8.7
			c3.1-3.6,7.5-5.5,12.2-5.3c4.7,0.2,9,2.5,11.7,6.4l3.8,5.4c5.9,8.3,15.2,13.1,25.4,13.1c0,0,0,0,0,0c10.2,0,19.5-4.8,25.4-13.1
			l2.2-3c2.9-4.1,7.4-6.4,12.4-6.4s9.5,2.3,12.4,6.4l2.2,3c5.9,8.3,15.2,13.1,25.4,13.1c0,0,0,0,0,0c10.2,0,19.5-4.8,25.4-13.1
			l2.2-3c2.9-4.1,7.4-6.4,12.4-6.4s9.5,2.3,12.4,6.4c6,8.4,15.7,13.2,25.7,13.1l1.2,6.6C370.2,377.7,370.3,393,368,408z M363.1,340
			c-3.8-0.7-7.3-2.8-9.7-6.2c-5.9-8.3-15.2-13.1-25.4-13.1c-10.2,0-19.5,4.8-25.4,13.1l-2.2,3c-2.9,4.1-7.4,6.4-12.4,6.4
			s-9.5-2.3-12.4-6.4l-2.2-3c-5.9-8.3-15.2-13.1-25.4-13.1c-10.2,0-19.5,4.8-25.4,13.1l-2.2,3c-2.9,4.1-7.4,6.4-12.4,6.4
			s-9.5-2.3-12.4-6.4l-3.8-5.4c-5.6-7.9-14.4-12.6-24-13.1c-5.4-0.2-10.7,0.9-15.4,3.3l6.3-33.7h8.1h186.6L363.1,340z M160,256h208
			l-12,16H160V256z M104,328c-4.4,0-8,3.6-8,8v32c0,6.4-2.5,12.4-7,17c-2.6,2.6-5.6,4.5-9,5.7v-62.8c0-8.7,7.1-15.8,15.8-15.8h42
			l-3,16H104z M480,480H32v-16h120h208h120V480z"/><path d="M256 48c-4.4 0-8 3.6-8 8v32c0 4.4 3.6 8 8 8 4.4 0 8-3.6 8-8V56C264 51.6 260.4 48 256 48zM307.6 48.8c-4-2-8.8-.4-10.7 3.6l-16 32c-2 4-.4 8.8 3.6 10.7 1.1.6 2.4.8 3.6.8 2.9 0 5.8-1.6 7.2-4.4l16-32C313.1 55.6 311.5 50.8 307.6 48.8zM215.2 52.4c-2-4-6.8-5.6-10.7-3.6-4 2-5.6 6.8-3.6 10.7l16 32c1.4 2.8 4.2 4.4 7.2 4.4 1.2 0 2.4-.3 3.6-.8 4-2 5.6-6.8 3.6-10.7L215.2 52.4z"/></g></svg>