<svg xmlns="http://www.w3.org/2000/svg" data-name="Layer 1" viewBox="0 0 512 512"><path d="M215.82,335.82a77,77,0,0,0,23.53-3.74A67.44,67.44,0,0,0,256,324a67.44,67.44,0,0,0,16.65,8.13A77,77,0,0,0,304,335.34c13.05-1.47,23.79-6.68,31.05-15.06,3.61-4.15,14.87-18.93,8.64-34.72-3.8-9.66-12.26-14.51-17-16.54a7.51,7.51,0,0,0-10.09,9.28c.91,2.69.39,5.05-.59,6s-4.08.87-7.27-.4c-1.43-.57-1.86-1-3.47-2.84a46.17,46.17,0,0,0-4.85-4.9c-3.77-3.24-17.25-13.56-32.67-10.28a30.37,30.37,0,0,0-11.78,5.5,30.35,30.35,0,0,0-11.79-5.5c-15.42-3.28-28.89,7-32.66,10.28a46.17,46.17,0,0,0-4.85,4.9c-1.61,1.82-2,2.27-3.46,2.84-3.2,1.27-6.19,1.44-7.28.4s-1.5-3.29-.59-6A7.51,7.51,0,0,0,185.28,269c-4.7,2-13.16,6.88-17,16.54-6.23,15.79,5,30.57,8.64,34.72C186.59,331.4,201.23,335.82,215.82,335.82Zm-33.55-44.76a1.54,1.54,0,0,1,.08-.19,17.29,17.29,0,0,0,3.28,4.28c5.6,5.33,14,6.3,23.17,2.66A22.14,22.14,0,0,0,218,291a31.93,31.93,0,0,1,3.39-3.45c1.06-.92,10.67-8.9,19.76-7,1.85.39,5.53,1.69,9.25,6a7.5,7.5,0,0,0,11.3,0c3.72-4.27,7.4-5.57,9.25-6,9.09-1.93,18.7,6.06,19.76,7a31.93,31.93,0,0,1,3.39,3.45,22.11,22.11,0,0,0,9.16,6.85c9.12,3.64,17.56,2.67,23.16-2.66a17.29,17.29,0,0,0,3.28-4.28c0,.07.06.13.08.19,3.28,8.32-5.06,18.28-6,19.39-7.32,8.45-25,14.36-46.4,7.37a53.18,53.18,0,0,1-16.64-9,7.5,7.5,0,0,0-9.34,0,53.18,53.18,0,0,1-16.64,9c-21.43,7-39.08,1.08-46.4-7.37C187.33,309.34,179,299.38,182.27,291.06ZM401.93,42H390.79L370.51,13.61A32.58,32.58,0,0,0,344.06,0H167.94a32.58,32.58,0,0,0-26.45,13.61L121.21,42H110.07a22.53,22.53,0,0,0-22.5,22.5v17A22.52,22.52,0,0,0,108,103.9l27.46,373.35A37.64,37.64,0,0,0,172.88,512H339.12a37.64,37.64,0,0,0,37.4-34.75L404,103.9a22.52,22.52,0,0,0,20.45-22.4v-17A22.53,22.53,0,0,0,401.93,42ZM153.7,22.33A17.53,17.53,0,0,1,167.94,15H344.06a17.53,17.53,0,0,1,14.24,7.33L372.36,42H139.64ZM361.56,476.15A22.59,22.59,0,0,1,339.12,497H172.88a22.59,22.59,0,0,1-22.44-20.85l-6.09-82.79h223.3Zm7.19-97.79H143.25L131.8,222.64H380.2Zm12.56-170.72H130.69L123.07,104H388.93ZM409.43,81.5a7.51,7.51,0,0,1-7.5,7.5H110.07a7.51,7.51,0,0,1-7.5-7.5v-17a7.51,7.51,0,0,1,7.5-7.5H401.93a7.51,7.51,0,0,1,7.5,7.5Z"/></svg>