<svg xmlns="http://www.w3.org/2000/svg" enable-background="new 0 0 512 512" viewBox="0 0 512 512"><g display="none"><path fill="#C4C2C2" stroke="#000" stroke-linecap="round" stroke-linejoin="round" stroke-miterlimit="10" stroke-width="16" d="M392 200v32h39.2c9.3 0 16.8 7.5 16.8 16.8v46.4c0 9.3-7.5 16.8-16.8 16.8H392v32h44.3c28.6 0 51.7-23.1 51.7-51.7v-40.6c0-28.6-23.1-51.7-51.7-51.7H392zM456 464H56c-17.7 0-32-14.3-32-32l0 0h464l0 0C488 449.7 473.7 464 456 464z"/><path fill="#C4C2C2" stroke="#000" stroke-linecap="round" stroke-linejoin="round" stroke-miterlimit="10" stroke-width="16" d="
		M298.8,432h-85.5C157.3,432,112,386.7,112,330.8V224h288v106.8C400,386.7,354.7,432,298.8,432z"/><rect width="288" height="64" x="112" y="176" fill="#C4C2C2" stroke="#000" stroke-linecap="round" stroke-linejoin="round" stroke-miterlimit="10" stroke-width="16"/><path fill="none" stroke="#000" stroke-linecap="round" stroke-linejoin="round" stroke-miterlimit="10" stroke-width="16" d="M256 48l-2.9 1.8c-17.5 11.1-17.5 33.2 0 44.3L256 96l2.9 1.8c17.5 11.1 17.5 33.2 0 44.3L256 144M184 48l-2.9 1.8c-17.5 11.1-17.5 33.2 0 44.3L184 96l2.9 1.8c17.5 11.1 17.5 33.2 0 44.3L184 144M328 48l-2.9 1.8c-17.5 11.1-17.5 33.2 0 44.3L328 96l2.9 1.8c17.5 11.1 17.5 33.2 0 44.3L328 144"/><path fill="#C4C2C2" stroke="#000" stroke-linecap="round" stroke-linejoin="round" stroke-miterlimit="10" stroke-width="16" d="
			M233.9,352.8l-0.5,0.7c-2.2-26.4-17.3-37.2-31.1-41.6c-14.9,13.7-13.5,41.4,3.8,63.2c16.6,20.9,41.8,28.9,58.7,19.4
			C251,389.9,236.1,379,233.9,352.8z"/><path fill="#C4C2C2" stroke="#000" stroke-linecap="round" stroke-linejoin="round" stroke-miterlimit="10" stroke-width="16" d="
			M266.2,327.3c-17.8-22.5-45.7-30-62.4-16.9c-0.6,0.4-1.1,0.9-1.6,1.4c13.8,4.4,28.9,15.3,31.1,41.6l0.5-0.7
			c2.2,26.2,17.1,37.1,30.8,41.5c1.3-0.7,2.5-1.5,3.7-2.5C285,378.7,284,349.8,266.2,327.3z"/><path fill="#C4C2C2" stroke="#000" stroke-linecap="round" stroke-linejoin="round" stroke-miterlimit="10" stroke-width="16" d="
			M294.8,320.4l-0.8-0.2c22.7-13.6,25.9-31.9,23.8-46.2c-18.9-7.4-43.2,6.1-55.1,31.1c-11.5,24-7.6,50.3,8.3,61.2
			C269,352,272.3,333.9,294.8,320.4z"/><path fill="#C4C2C2" stroke="#000" stroke-linecap="round" stroke-linejoin="round" stroke-miterlimit="10" stroke-width="16" d="
			M331.9,338.3c12.4-25.9,7-54.3-12.2-63.4c-0.6-0.3-1.3-0.6-1.9-0.8c2.1,14.3-1.1,32.6-23.8,46.2l0.8,0.2
			C272.3,333.9,269,352,271,366.3c1.2,0.8,2.5,1.6,3.8,2.2C293.9,377.7,319.5,364.2,331.9,338.3z"/></g><g display="none"><path d="M405.9 352h30.4c32.9 0 59.7-26.8 59.7-59.7v-40.6c0-32.9-26.8-59.7-59.7-59.7H408v-16c0-4.4-3.6-8-8-8H112c-4.4 0-8 3.6-8 8v48 16 90.8c0 39.4 21 74 52.4 93.2H24c-4.4 0-8 3.6-8 8 0 22.1 17.9 40 40 40h400c22.1 0 40-17.9 40-40 0-4.4-3.6-8-8-8H355.6C381.1 408.4 399.9 382.6 405.9 352zM408 240h23.2c4.9 0 8.8 4 8.8 8.8v46.4c0 4.9-4 8.8-8.8 8.8H408V240zM408 330.8V320h23.2c13.7 0 24.8-11.1 24.8-24.8v-46.4c0-13.7-11.1-24.8-24.8-24.8H408v-16h28.3c24.1 0 43.7 19.6 43.7 43.7v40.6c0 24.1-19.6 43.7-43.7 43.7h-28.4C407.9 334.3 408 332.5 408 330.8zM120 224v-40h272v40 8H120V224zM478.6 440c-3.3 9.3-12.2 16-22.6 16H56c-10.4 0-19.3-6.7-22.6-16h179.9 85.5H478.6zM298.8 424h-85.5c-51.4 0-93.2-41.8-93.2-93.2V248h272v82.8c0 4.1-.3 8.2-.8 12.2C385.2 389.2 345.4 424 298.8 424zM248.8 100.9l5.8 3.7c6 3.8 9.4 9.4 9.4 15.4s-3.4 11.6-9.4 15.4l-2.9 1.8c-3.7 2.4-4.8 7.3-2.5 11 1.5 2.4 4.1 3.7 6.8 3.7 1.5 0 2.9-.4 4.3-1.2l2.9-1.8c10.7-6.8 16.8-17.3 16.8-28.9s-6.1-22.1-16.8-28.9l-5.8-3.7c-6-3.8-9.4-9.4-9.4-15.4s3.4-11.6 9.4-15.4l2.9-1.8c3.7-2.4 4.8-7.3 2.5-11-2.4-3.7-7.3-4.8-11-2.5l-2.9 1.8C238.1 49.9 232 60.4 232 72S238.1 94.1 248.8 100.9zM176.8 100.9l5.8 3.7c6 3.8 9.4 9.4 9.4 15.4s-3.4 11.6-9.4 15.4l-2.9 1.8c-3.7 2.4-4.8 7.3-2.5 11 1.5 2.4 4.1 3.7 6.8 3.7 1.5 0 2.9-.4 4.3-1.2l2.9-1.8c10.7-6.8 16.8-17.3 16.8-28.9s-6.1-22.1-16.8-28.9l-5.8-3.7c-6-3.8-9.4-9.4-9.4-15.4s3.4-11.6 9.4-15.4l2.9-1.8c3.7-2.4 4.8-7.3 2.5-11-2.4-3.7-7.3-4.8-11-2.5l-2.9 1.8C166.1 49.9 160 60.4 160 72S166.1 94.1 176.8 100.9zM320.8 100.9l5.8 3.7c6 3.8 9.4 9.4 9.4 15.4s-3.4 11.6-9.4 15.4l-2.9 1.8c-3.7 2.4-4.8 7.3-2.5 11 1.5 2.4 4.1 3.7 6.8 3.7 1.5 0 2.9-.4 4.3-1.2l2.9-1.8c10.7-6.8 16.8-17.3 16.8-28.9s-6.1-22.1-16.8-28.9l-5.8-3.7c-6-3.8-9.4-9.4-9.4-15.4s3.4-11.6 9.4-15.4l2.9-1.8c3.7-2.4 4.8-7.3 2.5-11-2.4-3.7-7.3-4.8-11-2.5l-2.9 1.8C310.1 49.9 304 60.4 304 72S310.1 94.1 320.8 100.9z"/><path d="M320.5,295.7C320.4,295.6,320.4,295.6,320.5,295.7c-14.1-14.1-39.8-11.8-61.3,5.3c-6.7-17.3-19.7-28.8-34.9-28.9
			c-0.1,0-0.1,0-0.2,0c0,0,0,0,0,0c-22.4,0-40,24.6-40,56s17.6,56,40,56c0,0,0,0,0,0c0,0,0,0,0,0c0.1,0,0.1,0,0.2,0
			c7.1-0.1,13.7-2.6,19.4-7c5.8,4.6,13.3,7,21.5,7c9.4,0,19.7-3,29.6-9.1c5.1-3.1,9.9-6.9,14.3-11.3c22.1-22,27.1-51.7,11.6-67.6
			C320.6,295.8,320.5,295.7,320.5,295.7z M220.8,367.6c-11.6-2.7-20.8-19.7-20.8-39.6c0-10.1,2.4-19.5,6.2-26.6
			c-0.7,11.6,3.3,23.4,12.2,32.2C227.7,342.9,228.5,357.5,220.8,367.6z M241.9,354.2c0.6-11.5-3.5-23.1-12.2-31.9
			c-9.2-9.2-10-23.8-2.4-33.9c11.5,2.8,20.7,19.8,20.7,39.6C248,337.9,245.7,347.2,241.9,354.2z M257.5,358.9
			c4.1-8.8,6.5-19.4,6.5-30.9c0-3.2-0.2-6.3-0.5-9.4c0.1-0.1,0.2-0.3,0.4-0.4c1.7-1.7,3.4-3.2,5.2-4.6c0.1,0,0.1-0.1,0.2-0.1
			c5.8-4.7,12-7.9,17.9-9.6c-8.7,7.7-14.2,18.9-14.2,31.4C272.9,345.8,266.6,354.9,257.5,358.9z M297.8,352.2
			c-3.5,3.5-7.3,6.5-11.4,9c-3.8,2.3-7.7,4-11.4,5.2c8.5-7.7,13.8-18.8,13.8-31.1c0-13.1,9.7-23.9,22.3-25.7
			C317.3,319.7,311.7,338.2,297.8,352.2z"/></g><linearGradient id="a" x1="74.491" x2="436.421" y1="507.033" y2="145.104" gradientUnits="userSpaceOnUse"><stop offset="0" stop-color="#12c2e9"/><stop offset=".533" stop-color="#c471ed"/><stop offset="1" stop-color="#f64f59"/></linearGradient><path fill="url(#a)" d="M405.9,352h30.4c32.9,0,59.7-26.8,59.7-59.7v-40.6c0-32.9-26.8-59.7-59.7-59.7H408v-16
		c0-4.4-3.6-8-8-8H112c-4.4,0-8,3.6-8,8v48v16v90.8c0,39.4,21,74,52.4,93.2H24c-4.4,0-8,3.6-8,8c0,22.1,17.9,40,40,40h400
		c22.1,0,40-17.9,40-40c0-4.4-3.6-8-8-8H355.6C381.1,408.4,399.9,382.6,405.9,352z M408,240h23.2c4.9,0,8.8,4,8.8,8.8v46.4
		c0,4.9-4,8.8-8.8,8.8H408V240z M408,330.8V320h23.2c13.7,0,24.8-11.1,24.8-24.8v-46.4c0-13.7-11.1-24.8-24.8-24.8H408v-16h28.3
		c24.1,0,43.7,19.6,43.7,43.7v40.6c0,24.1-19.6,43.7-43.7,43.7h-28.4C407.9,334.3,408,332.5,408,330.8z M120,224v-40h272v40v8H120
		V224z M478.6,440c-3.3,9.3-12.2,16-22.6,16H56c-10.4,0-19.3-6.7-22.6-16h179.9h85.5H478.6z M298.8,424h-85.5
		c-51.4,0-93.2-41.8-93.2-93.2V248h272v82.8c0,4.1-0.3,8.2-0.8,12.2C385.2,389.2,345.4,424,298.8,424z M232,72
		c0-11.6,6.1-22.1,16.8-28.9l2.9-1.8c3.7-2.4,8.7-1.3,11,2.5c2.4,3.7,1.3,8.7-2.5,11l-2.9,1.8c-6,3.8-9.4,9.4-9.4,15.4
		s3.4,11.6,9.4,15.4l5.8,3.7c10.7,6.8,16.8,17.3,16.8,28.9s-6.1,22.1-16.8,28.9l-2.9,1.8c-1.3,0.8-2.8,1.2-4.3,1.2
		c-2.6,0-5.2-1.3-6.8-3.7c-2.4-3.7-1.3-8.7,2.5-11l2.9-1.8c6-3.8,9.4-9.4,9.4-15.4s-3.4-11.6-9.4-15.4l-5.8-3.7
		C238.1,94.1,232,83.6,232,72z M160,72c0-11.6,6.1-22.1,16.8-28.9l2.9-1.8c3.7-2.4,8.7-1.3,11,2.5c2.4,3.7,1.3,8.7-2.5,11l-2.9,1.8
		c-6,3.8-9.4,9.4-9.4,15.4s3.4,11.6,9.4,15.4l5.8,3.7c10.7,6.8,16.8,17.3,16.8,28.9s-6.1,22.1-16.8,28.9l-2.9,1.8
		c-1.3,0.8-2.8,1.2-4.3,1.2c-2.6,0-5.2-1.3-6.8-3.7c-2.4-3.7-1.3-8.7,2.5-11l2.9-1.8c6-3.8,9.4-9.4,9.4-15.4s-3.4-11.6-9.4-15.4
		l-5.8-3.7C166.1,94.1,160,83.6,160,72z M304,72c0-11.6,6.1-22.1,16.8-28.9l2.9-1.8c3.7-2.4,8.7-1.3,11,2.5c2.4,3.7,1.3,8.7-2.5,11
		l-2.9,1.8c-6,3.8-9.4,9.4-9.4,15.4s3.4,11.6,9.4,15.4l5.8,3.7c10.7,6.8,16.8,17.3,16.8,28.9s-6.1,22.1-16.8,28.9l-2.9,1.8
		c-1.3,0.8-2.8,1.2-4.3,1.2c-2.6,0-5.2-1.3-6.8-3.7c-2.4-3.7-1.3-8.7,2.5-11l2.9-1.8c6-3.8,9.4-9.4,9.4-15.4s-3.4-11.6-9.4-15.4
		l-5.8-3.7C310.1,94.1,304,83.6,304,72z M320.5,295.7C320.4,295.6,320.4,295.6,320.5,295.7c-14.1-14.1-39.8-11.8-61.3,5.3
		c-6.7-17.3-19.7-28.8-34.9-28.9c-0.1,0-0.1,0-0.2,0c0,0,0,0,0,0c-22.4,0-40,24.6-40,56s17.6,56,40,56c0,0,0,0,0,0c0,0,0,0,0,0
		c0.1,0,0.1,0,0.2,0c7.1-0.1,13.7-2.6,19.4-7c5.8,4.6,13.3,7,21.5,7c9.4,0,19.7-3,29.6-9.1c5.1-3.1,9.9-6.9,14.3-11.3
		c22.1-22,27.1-51.7,11.6-67.6C320.6,295.8,320.5,295.7,320.5,295.7z M220.8,367.6c-11.6-2.7-20.8-19.7-20.8-39.6
		c0-10.1,2.4-19.5,6.2-26.6c-0.7,11.6,3.3,23.4,12.2,32.2C227.7,342.9,228.5,357.5,220.8,367.6z M241.9,354.2
		c0.6-11.5-3.5-23.1-12.2-31.9c-9.2-9.2-10-23.8-2.4-33.9c11.5,2.8,20.7,19.8,20.7,39.6C248,337.9,245.7,347.2,241.9,354.2z
		 M257.5,358.9c4.1-8.8,6.5-19.4,6.5-30.9c0-3.2-0.2-6.3-0.5-9.4c0.1-0.1,0.2-0.3,0.4-0.4c1.7-1.7,3.4-3.2,5.2-4.6
		c0.1,0,0.1-0.1,0.2-0.1c5.8-4.7,12-7.9,17.9-9.6c-8.7,7.7-14.2,18.9-14.2,31.4C272.9,345.8,266.6,354.9,257.5,358.9z M297.8,352.2
		c-3.5,3.5-7.3,6.5-11.4,9c-3.8,2.3-7.7,4-11.4,5.2c8.5-7.7,13.8-18.8,13.8-31.1c0-13.1,9.7-23.9,22.3-25.7
		C317.3,319.7,311.7,338.2,297.8,352.2z"/><g display="none"><path d="M248.8 100.9l5.8 3.7c6 3.8 9.4 9.4 9.4 15.4s-3.4 11.6-9.4 15.4l-2.9 1.8c-3.7 2.4-4.8 7.3-2.5 11 1.5 2.4 4.1 3.7 6.8 3.7 1.5 0 2.9-.4 4.3-1.2l2.9-1.8c10.7-6.8 16.8-17.3 16.8-28.9s-6.1-22.1-16.8-28.9l-5.8-3.7c-6-3.8-9.4-9.4-9.4-15.4s3.4-11.6 9.4-15.4l2.9-1.8c3.7-2.4 4.8-7.3 2.5-11-2.4-3.7-7.3-4.8-11-2.5l-2.9 1.8C238.1 49.9 232 60.4 232 72S238.1 94.1 248.8 100.9zM176.8 100.9l5.8 3.7c6 3.8 9.4 9.4 9.4 15.4s-3.4 11.6-9.4 15.4l-2.9 1.8c-3.7 2.4-4.8 7.3-2.5 11 1.5 2.4 4.1 3.7 6.8 3.7 1.5 0 2.9-.4 4.3-1.2l2.9-1.8c10.7-6.8 16.8-17.3 16.8-28.9s-6.1-22.1-16.8-28.9l-5.8-3.7c-6-3.8-9.4-9.4-9.4-15.4s3.4-11.6 9.4-15.4l2.9-1.8c3.7-2.4 4.8-7.3 2.5-11-2.4-3.7-7.3-4.8-11-2.5l-2.9 1.8C166.1 49.9 160 60.4 160 72S166.1 94.1 176.8 100.9zM320.8 100.9l5.8 3.7c6 3.8 9.4 9.4 9.4 15.4s-3.4 11.6-9.4 15.4l-2.9 1.8c-3.7 2.4-4.8 7.3-2.5 11 1.5 2.4 4.1 3.7 6.8 3.7 1.5 0 2.9-.4 4.3-1.2l2.9-1.8c10.7-6.8 16.8-17.3 16.8-28.9s-6.1-22.1-16.8-28.9l-5.8-3.7c-6-3.8-9.4-9.4-9.4-15.4s3.4-11.6 9.4-15.4l2.9-1.8c3.7-2.4 4.8-7.3 2.5-11-2.4-3.7-7.3-4.8-11-2.5l-2.9 1.8C310.1 49.9 304 60.4 304 72S310.1 94.1 320.8 100.9zM241.9 354.2c3.8-7.1 6.1-16.3 6.1-26.2 0-19.8-9.2-36.8-20.7-39.6-7.6 10.2-6.9 24.7 2.4 33.9C238.5 331.1 242.5 342.8 241.9 354.2zM275 366.4c3.7-1.1 7.6-2.9 11.4-5.2 4-2.5 7.9-5.5 11.4-9 14-14 19.5-32.5 13.4-42.6-12.6 1.8-22.3 12.6-22.3 25.7C288.9 347.6 283.5 358.7 275 366.4zM272.9 335.3c0-12.5 5.5-23.8 14.2-31.4-5.9 1.7-12.1 5-17.9 9.6-.1.1-.1.1-.2.1-1.8 1.4-3.5 3-5.2 4.6-.1.1-.2.3-.4.4.4 3 .5 6.2.5 9.4 0 11.5-2.4 22.1-6.5 30.9C266.6 354.9 272.9 345.8 272.9 335.3z"/><polygon points="392 224 392 184 120 184 120 224 120 232 392 232"/><path d="M440,295.2v-46.4c0-4.9-4-8.8-8.8-8.8H408v64h23.2C436,304,440,300,440,295.2z"/><path d="M436.3 208H408v16h23.2c13.7 0 24.8 11.1 24.8 24.8v46.4c0 13.7-11.1 24.8-24.8 24.8H408v10.8c0 1.7-.1 3.5-.1 5.2h28.4c24.1 0 43.7-19.6 43.7-43.7v-40.6C480 227.6 460.4 208 436.3 208zM213.2 440H33.4c3.3 9.3 12.2 16 22.6 16h400c10.4 0 19.3-6.7 22.6-16H298.8 213.2zM220.8 367.6c7.7-10.2 6.9-24.7-2.4-34-8.8-8.8-12.9-20.7-12.2-32.2-3.9 7.1-6.2 16.5-6.2 26.6C200 347.9 209.2 364.9 220.8 367.6z"/><path d="M213.2,424h85.5c46.7,0,86.4-34.8,92.4-81c0.5-4,0.8-8.1,0.8-12.2V248H120v82.8C120,382.2,161.8,424,213.2,424z M224,272
			C224,272,224,272,224,272c0.1,0,0.2,0,0.3,0c15.3,0.1,28.2,11.7,34.9,28.9c21.5-17.1,47.2-19.4,61.2-5.4c0,0,0,0,0.1,0.1
			c0.1,0.1,0.1,0.1,0.2,0.2c15.5,15.9,10.5,45.6-11.6,67.6c-4.4,4.4-9.2,8.2-14.3,11.3c-9.9,6.1-20.3,9.1-29.6,9.1
			c-8.2,0-15.7-2.3-21.5-7c-5.7,4.4-12.3,6.9-19.4,7c-0.1,0-0.1,0-0.2,0c0,0,0,0,0,0c0,0,0,0,0,0c-22.4,0-40-24.6-40-56
			S201.6,272,224,272z"/></g><g display="none"><path fill="#7B9093" d="M392 200v32h39.2c9.3 0 16.8 7.5 16.8 16.8v46.4c0 9.3-7.5 16.8-16.8 16.8H392v32h44.3c28.6 0 51.7-23.1 51.7-51.7v-40.6c0-28.6-23.1-51.7-51.7-51.7H392zM456 464H56c-17.7 0-32-14.3-32-32l0 0h464l0 0C488 449.7 473.7 464 456 464z"/><path fill="#A87249" d="M298.8,432h-85.5C157.3,432,112,386.7,112,330.8V224h288v106.8
		C400,386.7,354.7,432,298.8,432z"/><rect width="288" height="64" x="112" y="176" fill="#A1BDC1"/><path fill="#5F381F" d="M256 152c-2.6 0-5.2-1.3-6.8-3.7-2.4-3.7-1.3-8.7 2.5-11l2.9-1.8c6-3.8 9.4-9.4 9.4-15.4s-3.4-11.6-9.4-15.4l-5.8-3.7C238.1 94.1 232 83.6 232 72s6.1-22.1 16.8-28.9l2.9-1.8c3.7-2.4 8.7-1.3 11 2.5 2.4 3.7 1.3 8.7-2.5 11l-2.9 1.8c-6 3.8-9.4 9.4-9.4 15.4s3.4 11.6 9.4 15.4l5.8 3.7c10.7 6.8 16.8 17.3 16.8 28.9s-6.1 22.1-16.8 28.9l-2.9 1.8C259 151.6 257.5 152 256 152zM184 152c-2.6 0-5.2-1.3-6.8-3.7-2.4-3.7-1.3-8.7 2.5-11l2.9-1.8c6-3.8 9.4-9.4 9.4-15.4s-3.4-11.6-9.4-15.4l-5.8-3.7C166.1 94.1 160 83.6 160 72s6.1-22.1 16.8-28.9l2.9-1.8c3.7-2.4 8.7-1.3 11 2.5 2.4 3.7 1.3 8.7-2.5 11l-2.9 1.8c-6 3.8-9.4 9.4-9.4 15.4s3.4 11.6 9.4 15.4l5.8 3.7c10.7 6.8 16.8 17.3 16.8 28.9s-6.1 22.1-16.8 28.9l-2.9 1.8C187 151.6 185.5 152 184 152zM328 152c-2.6 0-5.2-1.3-6.8-3.7-2.4-3.7-1.3-8.7 2.5-11l2.9-1.8c6-3.8 9.4-9.4 9.4-15.4s-3.4-11.6-9.4-15.4l-5.8-3.7C310.1 94.1 304 83.6 304 72s6.1-22.1 16.8-28.9l2.9-1.8c3.7-2.4 8.7-1.3 11 2.5 2.4 3.7 1.3 8.7-2.5 11l-2.9 1.8c-6 3.8-9.4 9.4-9.4 15.4s3.4 11.6 9.4 15.4l5.8 3.7c10.7 6.8 16.8 17.3 16.8 28.9s-6.1 22.1-16.8 28.9l-2.9 1.8C331 151.6 329.5 152 328 152z"/><path fill="#432716" d="M233.9,352.8l-0.5,0.7c-2.2-26.4-17.3-37.2-31.1-41.6c-14.9,13.7-13.5,41.4,3.8,63.2
		c16.6,20.9,41.8,28.9,58.7,19.4C251,389.9,236.1,379,233.9,352.8z"/><path fill="#5F381F" d="M266.2,327.3c-17.8-22.5-45.7-30-62.4-16.9c-0.6,0.4-1.1,0.9-1.6,1.4
		c13.8,4.4,28.9,15.3,31.1,41.6l0.5-0.7c2.2,26.2,17.1,37.1,30.8,41.5c1.3-0.7,2.5-1.5,3.7-2.5C285,378.7,284,349.8,266.2,327.3z"/><path fill="#432716" d="M294.8,320.4l-0.8-0.2c22.7-13.6,25.9-31.9,23.8-46.2c-18.9-7.4-43.2,6.1-55.1,31.1
		c-11.5,24-7.6,50.3,8.3,61.2C269,352,272.3,333.9,294.8,320.4z"/><path fill="#5F381F" d="M331.9,338.3c12.4-25.9,7-54.3-12.2-63.4c-0.6-0.3-1.3-0.6-1.9-0.8
		c2.1,14.3-1.1,32.6-23.8,46.2l0.8,0.2C272.3,333.9,269,352,271,366.3c1.2,0.8,2.5,1.6,3.8,2.2C293.9,377.7,319.5,364.2,331.9,338.3
		z"/></g><g display="none"><path fill="#7B9093" d="M392 200v32h39.2c9.3 0 16.8 7.5 16.8 16.8v46.4c0 9.3-7.5 16.8-16.8 16.8H392v32h44.3c28.6 0 51.7-23.1 51.7-51.7v-40.6c0-28.6-23.1-51.7-51.7-51.7H392zM456 464H56c-17.7 0-32-14.3-32-32l0 0h464l0 0C488 449.7 473.7 464 456 464z"/><path fill="#A87249" d="M298.8,432h-85.5C157.3,432,112,386.7,112,330.8V224h288v106.8
		C400,386.7,354.7,432,298.8,432z"/><rect width="288" height="64" x="112" y="176" fill="#A1BDC1"/><path fill="#5F381F" d="M256 152c-2.6 0-5.2-1.3-6.8-3.7-2.4-3.7-1.3-8.7 2.5-11l2.9-1.8c6-3.8 9.4-9.4 9.4-15.4s-3.4-11.6-9.4-15.4l-5.8-3.7C238.1 94.1 232 83.6 232 72s6.1-22.1 16.8-28.9l2.9-1.8c3.7-2.4 8.7-1.3 11 2.5 2.4 3.7 1.3 8.7-2.5 11l-2.9 1.8c-6 3.8-9.4 9.4-9.4 15.4s3.4 11.6 9.4 15.4l5.8 3.7c10.7 6.8 16.8 17.3 16.8 28.9s-6.1 22.1-16.8 28.9l-2.9 1.8C259 151.6 257.5 152 256 152zM184 152c-2.6 0-5.2-1.3-6.8-3.7-2.4-3.7-1.3-8.7 2.5-11l2.9-1.8c6-3.8 9.4-9.4 9.4-15.4s-3.4-11.6-9.4-15.4l-5.8-3.7C166.1 94.1 160 83.6 160 72s6.1-22.1 16.8-28.9l2.9-1.8c3.7-2.4 8.7-1.3 11 2.5 2.4 3.7 1.3 8.7-2.5 11l-2.9 1.8c-6 3.8-9.4 9.4-9.4 15.4s3.4 11.6 9.4 15.4l5.8 3.7c10.7 6.8 16.8 17.3 16.8 28.9s-6.1 22.1-16.8 28.9l-2.9 1.8C187 151.6 185.5 152 184 152zM328 152c-2.6 0-5.2-1.3-6.8-3.7-2.4-3.7-1.3-8.7 2.5-11l2.9-1.8c6-3.8 9.4-9.4 9.4-15.4s-3.4-11.6-9.4-15.4l-5.8-3.7C310.1 94.1 304 83.6 304 72s6.1-22.1 16.8-28.9l2.9-1.8c3.7-2.4 8.7-1.3 11 2.5 2.4 3.7 1.3 8.7-2.5 11l-2.9 1.8c-6 3.8-9.4 9.4-9.4 15.4s3.4 11.6 9.4 15.4l5.8 3.7c10.7 6.8 16.8 17.3 16.8 28.9s-6.1 22.1-16.8 28.9l-2.9 1.8C331 151.6 329.5 152 328 152z"/><path fill="#432716" d="M283.1,336l0.4,0.6c4.8-23.2,19.4-31.3,32.2-33.8c11.8,13.8,7.5,38.4-10.1,55.9
		c-17,16.8-40.4,21.2-54.3,10.9C263.9,367.2,278.3,359.1,283.1,336z"/><path fill="#5F381F" d="M257,309.8c18.3-18.1,44-21.9,57.4-8.3c0.4,0.5,0.9,0.9,1.3,1.4
		c-12.8,2.4-27.4,10.5-32.2,33.8l-0.4-0.6c-4.8,23.1-19.2,31.2-31.9,33.7c-1.1-0.8-2.1-1.6-3-2.6C234.8,353.6,238.7,327.9,257,309.8
		z"/><path fill="#432716" d="M225.8,328.2l0.7,0.1c-14.5-18.4-12.3-35-6.9-46.7c16.8-0.7,32.6,18.1,35.6,43.1
		c2.9,24-6.9,45.3-22.3,49.9C238.2,363,240.2,346.5,225.8,328.2z"/><path fill="#5F381F" d="M191.9,332.4c-3.2-25.9,8.5-48.5,25.9-50.7c0.6-0.1,1.2-0.1,1.8-0.1
		c-5.3,11.6-7.5,28.3,6.9,46.7l-0.7-0.1c14.4,18.3,12.3,34.8,7.1,46.4c-1.2,0.3-2.4,0.6-3.6,0.8
		C211.8,377.5,195.1,358.3,191.9,332.4z"/><path d="M405.9 352h30.4c32.9 0 59.7-26.8 59.7-59.7v-40.6c0-32.9-26.8-59.7-59.7-59.7H408v-16c0-4.4-3.6-8-8-8H112c-4.4 0-8 3.6-8 8v48 16 90.8c0 39.4 21 74 52.4 93.2H24c-4.4 0-8 3.6-8 8 0 22.1 17.9 40 40 40h400c22.1 0 40-17.9 40-40 0-4.4-3.6-8-8-8H355.6C381.1 408.4 399.9 382.6 405.9 352zM408 240h23.2c4.9 0 8.8 4 8.8 8.8v46.4c0 4.9-4 8.8-8.8 8.8H408V240zM408 330.8V320h23.2c13.7 0 24.8-11.1 24.8-24.8v-46.4c0-13.7-11.1-24.8-24.8-24.8H408v-16h28.3c24.1 0 43.7 19.6 43.7 43.7v40.6c0 24.1-19.6 43.7-43.7 43.7h-28.4C407.9 334.3 408 332.5 408 330.8zM120 224v-40h272v40 8H120V224zM478.6 440c-3.3 9.3-12.2 16-22.6 16H56c-10.4 0-19.3-6.7-22.6-16h179.9 85.5H478.6zM298.8 424h-85.5c-51.4 0-93.2-41.8-93.2-93.2V248h272v82.8c0 4.1-.3 8.2-.8 12.2C385.2 389.2 345.4 424 298.8 424zM248.8 100.9l5.8 3.7c6 3.8 9.4 9.4 9.4 15.4s-3.4 11.6-9.4 15.4l-2.9 1.8c-3.7 2.4-4.8 7.3-2.5 11 1.5 2.4 4.1 3.7 6.8 3.7 1.5 0 2.9-.4 4.3-1.2l2.9-1.8c10.7-6.8 16.8-17.3 16.8-28.9s-6.1-22.1-16.8-28.9l-5.8-3.7c-6-3.8-9.4-9.4-9.4-15.4s3.4-11.6 9.4-15.4l2.9-1.8c3.7-2.4 4.8-7.3 2.5-11-2.4-3.7-7.3-4.8-11-2.5l-2.9 1.8C238.1 49.9 232 60.4 232 72S238.1 94.1 248.8 100.9zM176.8 100.9l5.8 3.7c6 3.8 9.4 9.4 9.4 15.4s-3.4 11.6-9.4 15.4l-2.9 1.8c-3.7 2.4-4.8 7.3-2.5 11 1.5 2.4 4.1 3.7 6.8 3.7 1.5 0 2.9-.4 4.3-1.2l2.9-1.8c10.7-6.8 16.8-17.3 16.8-28.9s-6.1-22.1-16.8-28.9l-5.8-3.7c-6-3.8-9.4-9.4-9.4-15.4s3.4-11.6 9.4-15.4l2.9-1.8c3.7-2.4 4.8-7.3 2.5-11-2.4-3.7-7.3-4.8-11-2.5l-2.9 1.8C166.1 49.9 160 60.4 160 72S166.1 94.1 176.8 100.9zM320.8 100.9l5.8 3.7c6 3.8 9.4 9.4 9.4 15.4s-3.4 11.6-9.4 15.4l-2.9 1.8c-3.7 2.4-4.8 7.3-2.5 11 1.5 2.4 4.1 3.7 6.8 3.7 1.5 0 2.9-.4 4.3-1.2l2.9-1.8c10.7-6.8 16.8-17.3 16.8-28.9s-6.1-22.1-16.8-28.9l-5.8-3.7c-6-3.8-9.4-9.4-9.4-15.4s3.4-11.6 9.4-15.4l2.9-1.8c3.7-2.4 4.8-7.3 2.5-11-2.4-3.7-7.3-4.8-11-2.5l-2.9 1.8C310.1 49.9 304 60.4 304 72S310.1 94.1 320.8 100.9z"/><path d="M320.5,295.7C320.4,295.6,320.4,295.6,320.5,295.7c-14.1-14.1-39.8-11.8-61.3,5.3c-6.7-17.3-19.7-28.8-34.9-28.9
			c-0.1,0-0.1,0-0.2,0c0,0,0,0,0,0c-22.4,0-40,24.6-40,56s17.6,56,40,56c0,0,0,0,0,0c0,0,0,0,0,0c0.1,0,0.1,0,0.2,0
			c7.1-0.1,13.7-2.6,19.4-7c5.8,4.6,13.3,7,21.5,7c9.4,0,19.7-3,29.6-9.1c5.1-3.1,9.9-6.9,14.3-11.3c22.1-22,27.1-51.7,11.6-67.6
			C320.6,295.8,320.5,295.7,320.5,295.7z M220.8,367.6c-11.6-2.7-20.8-19.7-20.8-39.6c0-10.1,2.4-19.5,6.2-26.6
			c-0.7,11.6,3.3,23.4,12.2,32.2C227.7,342.9,228.5,357.5,220.8,367.6z M241.9,354.2c0.6-11.5-3.5-23.1-12.2-31.9
			c-9.2-9.2-10-23.8-2.4-33.9c11.5,2.8,20.7,19.8,20.7,39.6C248,337.9,245.7,347.2,241.9,354.2z M257.5,358.9
			c4.1-8.8,6.5-19.4,6.5-30.9c0-3.2-0.2-6.3-0.5-9.4c0.1-0.1,0.2-0.3,0.4-0.4c1.7-1.7,3.4-3.2,5.2-4.6c0.1,0,0.1-0.1,0.2-0.1
			c5.8-4.7,12-7.9,17.9-9.6c-8.7,7.7-14.2,18.9-14.2,31.4C272.9,345.8,266.6,354.9,257.5,358.9z M297.8,352.2
			c-3.5,3.5-7.3,6.5-11.4,9c-3.8,2.3-7.7,4-11.4,5.2c8.5-7.7,13.8-18.8,13.8-31.1c0-13.1,9.7-23.9,22.3-25.7
			C317.3,319.7,311.7,338.2,297.8,352.2z"/></g></svg>