<svg xmlns="http://www.w3.org/2000/svg" data-name="Layer 1" viewBox="0 0 24 24"><path d="M12.28,12l.21,0A4.5,4.5,0,0,0,17,7.5v-3A4.49,4.49,0,0,0,13,0a.49.49,0,0,0-.16,0h-.07a4.66,4.66,0,0,0-1.18.08A4.58,4.58,0,0,0,8,4.65V7a4.7,4.7,0,0,0,3.57,4.89c.13,0,.25,0,.38,0a.49.49,0,0,0,.22.06ZM13,2.5l.1-.3L13.13,2l0-.18c0-.08,0-.16.05-.24s0-.13,0-.19,0-.19,0-.29A3.46,3.46,0,0,1,16,4.5v3A3.47,3.47,0,0,1,12.69,11c0-.05,0-.1,0-.15s0-.17,0-.24l0-.15.05-.19,0-.12.1-.28a5.17,5.17,0,0,0,.36-2,5.19,5.19,0,0,0-.36-2,4.16,4.16,0,0,1-.3-1.67A4.16,4.16,0,0,1,13,2.5Zm-1,7.3-.06.19,0,.17c0,.08,0,.17-.06.26s0,.11,0,.17,0,.2,0,.32h0A3.74,3.74,0,0,1,9,7V4.65a3.58,3.58,0,0,1,2.77-3.57A3.61,3.61,0,0,1,12.31,1c0,.06,0,.1,0,.15s0,.17,0,.24l0,.16-.05.19,0,.13-.1.28a5.18,5.18,0,0,0-.36,2,5.19,5.19,0,0,0,.36,2,4.16,4.16,0,0,1,.3,1.67A4.14,4.14,0,0,1,12,9.5ZM24,19.76A4.49,4.49,0,0,0,19.5,15h-3A4.49,4.49,0,0,0,12,19a.49.49,0,0,0,0,.16.47.47,0,0,0,0,.07,4.64,4.64,0,0,0,.08,1.18A4.58,4.58,0,0,0,16.65,24H19a4.7,4.7,0,0,0,4.89-3.57A4.7,4.7,0,0,0,24,20a.48.48,0,0,0,0-.12A.47.47,0,0,0,24,19.76ZM19,23H16.65a3.58,3.58,0,0,1-3.57-2.77,3.62,3.62,0,0,1,0-.54l.12,0,.27,0,.15,0,.2.05.12,0,.28.1a5.16,5.16,0,0,0,2,.36,5.16,5.16,0,0,0,2-.36,4.16,4.16,0,0,1,1.67-.3,4.16,4.16,0,0,1,1.67.3l.3.1.19.06.17,0,.26.06.17,0,.32,0h0A3.73,3.73,0,0,1,19,23Zm3.81-3.71-.24,0-.16,0-.19-.05-.12,0-.28-.1a5.16,5.16,0,0,0-2-.36,5.16,5.16,0,0,0-2,.36,4.16,4.16,0,0,1-1.67.3A4.14,4.14,0,0,1,14.5,19l-.3-.1L14,18.87l-.17,0-.25-.06-.18,0-.31,0h0A3.48,3.48,0,0,1,16.5,16h3A3.47,3.47,0,0,1,23,19.31ZM5,12.06H5A.49.49,0,0,0,4.83,12l-.11,0L4.5,12A4.5,4.5,0,0,0,0,16.5v3a4.49,4.49,0,0,0,4,4.44H4a.49.49,0,0,0,.22.06l.11,0,.22,0A4.5,4.5,0,0,0,9,19.5v-3A4.49,4.49,0,0,0,5,12.06ZM4,21.5l-.1.3L3.87,22l0,.18c0,.08,0,.16-.05.25s0,.12,0,.18,0,.19,0,.31A3.5,3.5,0,0,1,1,19.5v-3A3.5,3.5,0,0,1,4.31,13h0c0,.05,0,.1,0,.15s0,.17,0,.24l0,.16-.05.19,0,.12-.1.28a5.17,5.17,0,0,0-.36,2,5.19,5.19,0,0,0,.36,2,4.16,4.16,0,0,1,.3,1.67A4.16,4.16,0,0,1,4,21.5Zm4-2A3.5,3.5,0,0,1,4.69,23c0-.06,0-.1,0-.15s0-.17,0-.24l0-.16.05-.19,0-.12.1-.28a5.18,5.18,0,0,0,.36-2,5.19,5.19,0,0,0-.36-2,4.16,4.16,0,0,1-.3-1.67A4.14,4.14,0,0,1,5,14.5l.1-.3L5.13,14l0-.18c0-.08,0-.16.05-.25s0-.12,0-.19,0-.19,0-.3h0A3.5,3.5,0,0,1,8,16.5Z"/></svg>