<svg xmlns="http://www.w3.org/2000/svg" enable-background="new 0 0 511.655 511.655" viewBox="0 0 511.655 511.655"><path d="M419.004,110.178h-27.677V78.412c0-9.824-7.993-17.817-17.817-17.817h-72.218c-4.143,0-7.5,3.358-7.5,7.5
		s3.357,7.5,7.5,7.5h72.218c1.554,0,2.817,1.264,2.817,2.817v7.315H338.65c-4.143,0-7.5,3.358-7.5,7.5s3.357,7.5,7.5,7.5h37.677
		v9.451h-241V78.095c0-1.378,1.122-2.5,2.5-2.5h128.166c4.143,0,7.5-3.358,7.5-7.5s-3.357-7.5-7.5-7.5h-67.984V7.5
		c0-4.142-3.358-7.5-7.5-7.5h-25.032c-4.142,0-7.5,3.358-7.5,7.5v53.095h-20.15c-9.649,0-17.5,7.851-17.5,17.5v32.084H92.651
		c-9.649,0-17.5,7.85-17.5,17.5v30.446c0,9.65,7.851,17.5,17.5,17.5c4.38,0,3.34,0,6.408,0
		c78.758,585.374,21.201,157.579,43.169,320.863c1.163,8.646,8.619,15.167,17.344,15.167h132.122c4.143,0,7.5-3.358,7.5-7.5
		s-3.357-7.5-7.5-7.5H159.572c-1.246,0-2.312-0.931-2.478-2.167l-15.925-118.364h76.724c12.624,9.235,25.557,16.995,34.409,21.709
		c2.203,1.173,4.847,1.174,7.051,0c8.852-4.714,21.784-12.474,34.409-21.709h76.727c-13.223,98.29-3.398,21.437-15.968,118.351
		c-0.161,1.242-1.228,2.179-2.479,2.179h-25.538c-4.143,0-7.5,3.358-7.5,7.5s3.357,7.5,7.5,7.5h25.538
		c8.767,0,16.227-6.556,17.354-15.249c15.244-117.531-13.408,100.014,43.201-320.781h6.409c9.649,0,17.5-7.85,17.5-17.5v-30.446
		C436.504,118.029,428.653,110.178,419.004,110.178z M172.977,15h10.032v45.595h-10.032V15z M167.762,308.425h-35.701l-5.074-37.71
		h41.649C164.439,284.07,164.737,294.981,167.762,308.425z M139.151,361.125l-5.072-37.7h38.552
		c6.486,15.12,15.163,26.907,26.85,37.7H139.151z M255.827,382.668c-16.441-9.19-45.629-28.185-58.314-45.851
		c-12.682-17.662-21.031-40.226-15.014-60.155c1.274-4.222,4.259-14.11,13.502-21.24c6.981-5.384,16.744-8.453,26.414-6.874
		c18.663,3.048,26.586,17.782,26.644,17.896c2.734,5.727,10.83,5.674,13.52,0.035c0.075-0.148,7.999-14.883,26.661-17.931
		c33.065-5.399,60.816,38.246,24.902,88.269C301.456,354.484,272.268,373.479,255.827,382.668z M379.595,308.425h-35.703
		c3.036-13.493,3.309-24.406-0.875-37.71h41.651L379.595,308.425z M312.173,361.125c11.719-10.823,20.378-22.613,26.849-37.7h38.555
		l-5.072,37.7H312.173z M421.504,158.124c0,1.378-1.121,2.5-2.5,2.5H225.438c-4.142,0-7.5,3.358-7.5,7.5s3.358,7.5,7.5,7.5h172.023
		l-10.775,80.091H336.05c-17.991-27.385-56.649-30.651-80.223-5.163c-23.576-25.488-62.232-22.223-80.224,5.163h-50.634
		l-10.775-80.09c50.406,0,58.628,0,76.589,0c4.142,0,7.5-3.358,7.5-7.5s-3.358-7.5-7.5-7.5H92.651c-1.378,0-2.5-1.122-2.5-2.5
		v-7.881h60.265c4.142,0,7.5-3.358,7.5-7.5s-3.358-7.5-7.5-7.5H90.151v-7.565c0-1.378,1.122-2.5,2.5-2.5h326.353
		c1.379,0,2.5,1.122,2.5,2.5V158.124z"/><path d="M307.004,320.42c12.029-16.04,12.038-38.123,0-54.176c-2.483-3.314-7.184-3.986-10.5-1.501
		c-3.313,2.485-3.985,7.186-1.5,10.5c8.031,10.709,8.039,25.458,0,36.177c-3.751,5.002-0.076,12,5.994,12
		C303.278,323.421,305.531,322.384,307.004,320.42z"/></svg>