<svg xmlns="http://www.w3.org/2000/svg" width="512" height="512" fill="none" viewBox="0 0 512 512"><path fill="url(#paint0_linear)" fill-rule="evenodd" d="M192.255 76C192.255 56.1177 208.373 40 228.255 40C248.138 40 264.255 56.1177 264.255 76C264.255 95.8822 248.138 112 228.255 112C208.373 112 192.255 95.8822 192.255 76ZM228.255 24C199.536 24 176.255 47.2812 176.255 76C176.255 104.719 199.536 128 228.255 128C256.974 128 280.255 104.719 280.255 76C280.255 47.2812 256.974 24 228.255 24ZM389.255 88C352.73 88 322.255 119.74 322.255 159.997C322.255 162.88 322.413 165.72 322.718 168.509C322.983 170.925 322.135 173.33 320.414 175.046C318.693 176.761 316.286 177.602 313.871 177.33C311.261 177.037 308.609 176.886 305.922 176.886C273.01 176.886 244.582 199.7 234.49 232H379.989C380.364 232 380.737 232.008 381.108 232.025L381.108 231.996C381.097 231.996 381.104 231.996 381.134 231.996L381.445 231.998L382.386 232L385.081 231.999L389.255 231.994C425.78 231.994 456.255 200.254 456.255 159.997C456.255 119.74 425.78 88 389.255 88ZM305.922 160.886C263.567 160.886 228.427 191.304 217.857 232H63.0205C46.3981 232 34.8089 248.489 40.4392 264.129L104.255 441.396V472C104.255 480.837 111.419 488 120.255 488H328.255C337.092 488 344.255 480.837 344.255 472V441.283L355.213 408H400.255C431.183 408 456.255 382.928 456.255 352V336C456.255 305.072 431.183 280 400.255 280H397.355L402.785 263.505C404.674 257.767 404.285 251.966 402.219 246.934C442.235 240.312 472.255 203.516 472.255 159.997C472.255 111.892 435.573 72 389.255 72C342.937 72 306.255 111.892 306.255 159.997L306.255 160.185C306.256 160.419 306.257 160.653 306.259 160.886L305.922 160.886ZM63.0205 248C57.4797 248 53.6166 253.496 55.4934 258.71L117.878 432H330.467L387.588 258.502C389.291 253.327 385.437 248 379.989 248H63.0205ZM360.481 392H400.255C422.346 392 440.255 374.091 440.255 352V336C440.255 313.909 422.346 296 400.255 296H392.087L360.481 392ZM120.255 448V472H328.255V448H120.255ZM192.255 344C192.255 330.011 196.318 317.681 202.481 309.052C205.037 305.474 207.873 302.621 210.872 300.507C208.927 307.821 208.449 314.49 209.019 320.763C209.942 330.916 213.601 339.45 216.739 346.771L216.902 347.151C220.19 354.823 222.881 361.247 223.558 368.686C224.115 374.817 223.316 382.089 219.4 391.428C213.282 389.98 207.369 385.792 202.481 378.948C196.318 370.319 192.255 357.989 192.255 344ZM189.461 299.752C197.729 288.177 209.853 280.068 224.075 280C224.2 279.997 224.326 279.998 224.452 280.001C238.667 280.075 250.785 288.181 259.049 299.752C267.363 311.391 272.255 327.061 272.255 344C272.255 360.939 267.363 376.609 259.049 388.248C250.782 399.823 238.658 407.931 224.436 408C224.311 408.003 224.185 408.002 224.06 407.999C209.844 407.926 197.726 399.819 189.461 388.248C181.147 376.609 176.255 360.939 176.255 344C176.255 327.061 181.147 311.391 189.461 299.752ZM224.953 319.314C224.396 313.183 225.195 305.911 229.111 296.572C235.229 298.02 241.141 302.208 246.03 309.052C252.193 317.681 256.255 330.011 256.255 344C256.255 357.989 252.193 370.319 246.03 378.948C243.474 382.526 240.638 385.378 237.64 387.493C239.584 380.179 240.062 373.51 239.492 367.237C238.569 357.084 234.91 348.55 231.772 341.229L231.609 340.849C228.321 333.177 225.63 326.753 224.953 319.314Z" clip-rule="evenodd"/><defs><linearGradient id="paint0_linear" x1="112.255" x2="432.255" y1="128" y2="448" gradientUnits="userSpaceOnUse"><stop stop-color="#FF003D"/><stop offset="1" stop-color="#3D00EB"/></linearGradient></defs></svg>