<svg xmlns="http://www.w3.org/2000/svg" viewBox="0 0 64 64"><polygon fill="#e0e0e2" points="19 56 18 61 14 61 13 56 19 56"/><polygon fill="#acabb1" points="28 24 28 26 9 26 7 26 4 26 4 24 7 21 25 21 28 24"/><polygon fill="#898890" points="28 26 28 31 4 31 4 26 7 26 9 26 28 26"/><polygon fill="#e0e0e2" points="25 17 25 21 7 21 7 17 13 17 19 17 25 17"/><path fill="#787680" d="M19 6V17H13V6a3 3 0 0 1 6 0zM57 41a4 4 0 1 1 0 8H37V41z"/><polygon fill="#e0e0e2" points="37 43 37 47 29 47 29 44 29 43 37 43"/><polygon fill="#e0e0e2" points="29 43 29 44 8 44 6 44 3 44 3 40 5.02 40 26.71 40 29 40 29 43"/><polygon fill="#acabb1" points="29 44 29 53 26 56 6 56 3 53 3 44 29 44"/><path fill="#806749" d="M14.57,37.58A8.492,8.492,0,0,1,26.71,40H5.02a8.51,8.51,0,0,1,6.48-3A8.423,8.423,0,0,1,14.57,37.58Z"/><rect width="3" height="4" x="5" y="45" fill="#e0e0e2" rx="1.5"/><rect width="24" height="1" x="4" y="30" fill="#e0e0e2"/><polygon fill="#787680" points="18.8 57 19 56 13 56 13.2 57 18.8 57"/><rect width="2" height="6" x="14" y="5" fill="#898890" rx="1"/><rect width="12" height="3" x="47" y="42" fill="#898890" rx="1.5"/></svg>