<svg xmlns="http://www.w3.org/2000/svg" width="32" height="32" viewBox="0 0 32 32"><g transform="translate(0 -1020.362)"><path fill="#2b4255" fill-rule="evenodd" style="line-height:normal;text-indent:0;text-align:start;text-decoration-line:none;text-decoration-style:solid;text-decoration-color:#000;text-transform:none;block-progression:tb;isolation:auto;mix-blend-mode:normal" d="M11.673828 1026.9824l-6.9999999 6 .6523438.7598 7.0000001-6-.652344-.7598zM5.4296875 1037.1055l-.859375.5136 5.9999995 10 .859376-.5136-6.0000005-10zM26.646484 1029.0078l-7 7 .707032.707 7-7-.707032-.707zM20.257812 1038.9336l-.515624.8574 5 3 .515624-.8574-5-3zM6.0449219 1035.8633l-.089844.9961 10.9999999 1 .08984-.9961-11.0000001-1zM24.841797 1044.8887l-10.5 3.5.316406.9472 10.5-3.5-.316406-.9472zM18.572266 1024.2676l-.144532.9883 7.5 1.1015.144532-.9902-7.5-1.0996zM28.501953 1029.3242l-1 13 .996094.076 1-13-.996094-.076z" color="#000" font-family="sans-serif" font-weight="400" overflow="visible"/><path fill="#25b39e" style="line-height:normal;text-indent:0;text-align:start;text-decoration-line:none;text-decoration-style:solid;text-decoration-color:#000;text-transform:none;block-progression:tb;isolation:auto;mix-blend-mode:normal" d="M15 1021.3613c-2.203217 0-4 1.7968-4 4 0 2.2032 1.796783 4 4 4 2.203217 0 4-1.7968 4-4 0-2.2032-1.796783-4-4-4zm0 1c1.662777 0 3 1.3373 3 3 0 1.6628-1.337223 3-3 3-1.662777 0-3-1.3372-3-3 0-1.6627 1.337223-3 3-3zM4 1032.3613c-1.6509319 0-3 1.3491-3 3 0 1.651 1.3490681 3 3 3 1.6509319 0 3-1.349 3-3 0-1.6509-1.3490681-3-3-3zm0 1c1.1104918 0 2 .8895 2 2 0 1.1105-.8895082 2-2 2-1.1104918 0-2-.8895-2-2 0-1.1105.8895082-2 2-2z" color="#000" font-family="sans-serif" font-weight="400" overflow="visible"/><path fill="#f05542" style="line-height:normal;text-indent:0;text-align:start;text-decoration-line:none;text-decoration-style:solid;text-decoration-color:#000;text-transform:none;block-progression:tb;isolation:auto;mix-blend-mode:normal" d="m 12.5,1046.3613 c -1.37479,0 -2.5,1.1252 -2.5,2.5 0,1.3748 1.12521,2.5 2.5,2.5 1.37479,0 2.5,-1.1252 2.5,-2.5 0,-1.3748 -1.12521,-2.5 -2.5,-2.5 z m 0,1 c 0.834349,0 1.5,0.6657 1.5,1.5 0,0.8344 -0.665651,1.5 -1.5,1.5 -0.834349,0 -1.5,-0.6656 -1.5,-1.5 0,-0.8343 0.665651,-1.5 1.5,-1.5 z" color="#000" font-family="sans-serif" font-weight="400" overflow="visible"/><path fill="#f8b84e" style="line-height:normal;text-indent:0;text-align:start;text-decoration-line:none;text-decoration-style:solid;text-decoration-color:#000;text-transform:none;block-progression:tb;isolation:auto;mix-blend-mode:normal" d="m 18.5,1035.3613 c -1.37479,0 -2.5,1.1252 -2.5,2.5 0,1.3748 1.12521,2.5 2.5,2.5 1.37479,0 2.5,-1.1252 2.5,-2.5 0,-1.3748 -1.12521,-2.5 -2.5,-2.5 z m 0,1 c 0.834349,0 1.5,0.6657 1.5,1.5 0,0.8344 -0.665651,1.5 -1.5,1.5 -0.834349,0 -1.5,-0.6656 -1.5,-1.5 0,-0.8343 0.665651,-1.5 1.5,-1.5 z" color="#000" font-family="sans-serif" font-weight="400" overflow="visible"/><path fill="#4bbfeb" style="line-height:normal;text-indent:0;text-align:start;text-decoration-line:none;text-decoration-style:solid;text-decoration-color:#000;text-transform:none;block-progression:tb;isolation:auto;mix-blend-mode:normal" d="m 26.5,1041.3613 c -1.37479,0 -2.5,1.1252 -2.5,2.5 0,1.3748 1.12521,2.5 2.5,2.5 1.37479,0 2.5,-1.1252 2.5,-2.5 0,-1.3748 -1.12521,-2.5 -2.5,-2.5 z m 0,1 c 0.834349,0 1.5,0.6657 1.5,1.5 0,0.8344 -0.665651,1.5 -1.5,1.5 -0.834349,0 -1.5,-0.6656 -1.5,-1.5 0,-0.8343 0.665651,-1.5 1.5,-1.5 z" color="#000" font-family="sans-serif" font-weight="400" overflow="visible"/><path fill="#f05542" style="line-height:normal;text-indent:0;text-align:start;text-decoration-line:none;text-decoration-style:solid;text-decoration-color:#000;text-transform:none;block-progression:tb;isolation:auto;mix-blend-mode:normal" d="m 28,1024.3613 c -1.650932,0 -3,1.3491 -3,3 0,1.651 1.349068,3 3,3 1.650932,0 3,-1.349 3,-3 0,-1.6509 -1.349068,-3 -3,-3 z m 0,1 c 1.110492,0 2,0.8895 2,2 0,1.1105 -0.889508,2 -2,2 -1.110492,0 -2,-0.8895 -2,-2 0,-1.1105 0.889508,-2 2,-2 z" color="#000" font-family="sans-serif" font-weight="400" overflow="visible"/></g></svg>