<svg xmlns="http://www.w3.org/2000/svg" viewBox="0 0 32 32"><path d="M30 15.86H17.63a.5.5 0 0 0-.5.5v.36H11.39v-.39a.5.5 0 0 0-.5-.5H2a.5.5 0 0 0-.5.5v1.78a4 4 0 0 0 3.56 4v.81c0 .6.74.6 1.39.6s1.39 0 1.39-.6v-.81a4 4 0 0 0 3.55-4v-.39h5.74v.36a.5.5 0 0 0 .5.5H30a.5.5 0 0 0 .5-.5V16.36A.5.5 0 0 0 30 15.86zm-27.5 1h7.89v.78H2.5zm4.34 5.69c-.21 0-.57 0-.78 0v-.35h.78zm.5-1.35H5.56a3.06 3.06 0 0 1-3-2.56h7.81A3.06 3.06 0 0 1 7.34 21.17zM29.5 17.58H18.13v-.72H29.5zM6.5 7.83A2.12 2.12 0 1 0 4.39 5.71 2.12 2.12 0 0 0 6.5 7.83zm0-3.23A1.12 1.12 0 1 1 5.39 5.71 1.12 1.12 0 0 1 6.5 4.6z"/><path d="M2.59 12.16h-.4a.5.5 0 0 0-.5.5v1.78a.5.5 0 0 0 .5.5h8.89a.5.5 0 0 0 .5-.5V12.66a.5.5 0 0 0-.5-.5h-.66V9.28A5.2 5.2 0 0 0 11.51 6.5a5 5 0 0 0-10 0A5.2 5.2 0 0 0 2.59 9.28zM2.5 6.5a4 4 0 0 1 8 0 4.56 4.56 0 0 1-1 2.34.47.47 0 0 0-.09.28v3.54a.5.5 0 0 0 .5.5h.66v.78H2.69v-.78h.4a.5.5 0 0 0 .5-.5V9.12a.47.47 0 0 0-.09-.28A4.56 4.56 0 0 1 2.5 6.5zM6.4 24.92a.49.49 0 0 0-.41.21c-.28.39-1.62 2.39-1.62 3.34a2 2 0 1 0 4.05 0c0-.95-1.34-2.95-1.61-3.34A.52.52 0 0 0 6.4 24.92zm0 4.58a1 1 0 0 1-1-1 6.77 6.77 0 0 1 1-2.14 6.91 6.91 0 0 1 1 2.14A1 1 0 0 1 6.4 29.5z"/></svg>