<svg xmlns="http://www.w3.org/2000/svg" viewBox="0 0 64 64"><g data-name="Layer 9"><path d="M46,16H15.38a1,1,0,0,0-.76.35,1,1,0,0,0-.23.79l1,7a1,1,0,0,0,1,.86H46a1,1,0,0,0,1-1V17A1,1,0,0,0,46,16Z"/><circle cx="32" cy="7" r="3"/><path d="M32 13a1 1 0 0 1-1-1V9a1 1 0 0 1 2 0v3A1 1 0 0 1 32 13zM54 54H46a1 1 0 0 1 0-2h8a1 1 0 0 0 1-1V31a1 1 0 0 0-1-1H46a1 1 0 0 1 0-2h8a3 3 0 0 1 3 3V51A3 3 0 0 1 54 54zM24 51.48a.53.53 0 0 0 .52.52h15a.53.53 0 0 0 .52-.52A7.48 7.48 0 0 0 32.52 44h-1A7.48 7.48 0 0 0 24 51.48z"/><path d="M46 15l.25 0-.63-3.21a1 1 0 0 0-1-.81H19.36a1 1 0 0 0-1 .81L17.76 15zM46 26H35V42.34a9.48 9.48 0 0 1 7 9.14A2.52 2.52 0 0 1 39.48 54h-15A2.52 2.52 0 0 1 22 51.48a9.48 9.48 0 0 1 7-9.14V26H17V59a1 1 0 0 0 1 1H46a1 1 0 0 0 1-1V25.72A2 2 0 0 1 46 26z"/><polygon points="31 26 31 42 31.48 42 32.52 42 33 42 33 26 31 26"/></g></svg>