<svg xmlns="http://www.w3.org/2000/svg" viewBox="0 0 64 64"><path fill="#2c4355" d="M31.994 8.25c-7.72 0-14 6.28-14 14 0 4.364 1.976 8.393 5.424 11.067l.036.034a10.047 10.047 0 0 1 3.54 7.66v3.239c-1.103 0-2 .897-2 2s.897 2 2 2v2.5c0 .031.012.059.018.089a.487.487 0 0 0 .064.329l4.5 6.857a.5.5 0 0 0 .836 0l4.5-6.857a.486.486 0 0 0 .064-.329c.006-.03.018-.057.018-.089v-2.5c1.103 0 2-.897 2-2s-.897-2-2-2v-3.239c0-2.953 1.29-5.745 3.539-7.66a.395.395 0 0 0 .036-.035 13.91 13.91 0 0 0 5.425-11.066c0-7.72-6.28-14-14-14zm0 48.589l-1.043-1.589h2.086l-1.043 1.589zm1.699-2.589h-3.398l-1.875-2.857h7.148l-1.875 2.857zm-5.699-4v-2h2v2h-2zm3 0v-2h2v2h-2zm5 0h-2v-2h2v2zm2-4c0 .551-.448 1-1 1h-10a1.001 1.001 0 0 1 0-2h10c.552 0 1 .449 1 1zM27.81 26.154c.498-.111.902-.308 1.36-.548l.335-.173c.127.06.252.125.378.189.567.292 1.21.624 2.088.627h.013c.873 0 1.514-.332 2.079-.625.131-.068.26-.135.392-.198.12.054.242.112.366.171.416.198.87.403 1.349.53a14.981 14.981 0 0 0-3.175 9.207v8.915h-2v-8.877a14.993 14.993 0 0 0-3.185-9.218zm12.086 6.418a.486.486 0 0 0-.073.07 11.037 11.037 0 0 0-3.81 8.012c-.006.032-.019.062-.019.096v3.5h-2v-8.915c0-3.384 1.223-6.65 3.443-9.197a.5.5 0 0 0-.049-.706c-.019-.016-.042-.022-.062-.035a.499.499 0 0 0-.354-.147c-.556 0-1.149-.282-1.723-.555-.207-.098-.409-.194-.605-.276a.495.495 0 0 0-.385 0c-.224.093-.44.205-.658.318-.509.264-.989.513-1.618.513h-.009c-.638-.002-1.121-.252-1.634-.516a9.11 9.11 0 0 0-.654-.315.5.5 0 0 0-.411.012c-.209.102-.396.199-.568.29-.632.331-1.013.53-1.734.53a.493.493 0 0 0-.47.352.495.495 0 0 0 .05.577 13.994 13.994 0 0 1 3.441 9.194v8.877h-2v-3.5c0-.034-.013-.064-.019-.096a11.04 11.04 0 0 0-3.809-8.01.453.453 0 0 0-.074-.071 12.914 12.914 0 0 1-5.098-10.323c0-7.168 5.832-13 13-13s13 5.832 13 13a12.91 12.91 0 0 1-5.098 10.321z"/><path fill="#2c4355" d="M51.994 22.537c0-2.228-2.192-4.292-6.066-5.779 1.7-3.817 1.789-6.781.207-8.363-1.737-1.737-5.234-1.452-9.59.781a.5.5 0 0 0 .457.89c3.886-1.992 7.039-2.353 8.426-.964 1.26 1.26 1.085 3.918-.442 7.318-.174-.059-.345-.118-.525-.175a.5.5 0 1 0-.299.954c.134.042.261.086.391.13-1.647 3.286-4.324 6.87-7.611 10.157a49.972 49.972 0 0 1-2.084 1.958c-.939.055-1.892.092-2.865.092-.972 0-1.924-.037-2.862-.092a49.207 49.207 0 0 1-2.089-1.958c-3.319-3.319-5.979-6.898-7.609-10.158.129-.043.255-.087.388-.129a.5.5 0 1 0-.299-.954c-.182.057-.355.117-.531.177a19.433 19.433 0 0 1-.621-1.547c-.931-2.671-.864-4.722.188-5.773 1.377-1.378 4.365-1.068 8.198.849a.5.5 0 1 0 .447-.895c-4.308-2.154-7.626-2.388-9.353-.661-1.357 1.357-1.504 3.712-.426 6.81.177.508.386 1.028.621 1.558-3.866 1.486-6.053 3.549-6.053 5.774 0 2.294 2.307 4.33 6.052 5.776-1.688 3.789-1.774 6.787-.195 8.366.758.758 1.834 1.136 3.172 1.136 1.496 0 3.318-.473 5.385-1.416 1.794-.819 3.685-1.953 5.581-3.335 4.155 3.034 8.113 4.744 10.975 4.744 1.319 0 2.407-.364 3.172-1.129 1.579-1.579 1.493-4.577-.195-8.366 3.748-1.446 6.055-3.482 6.055-5.776zm-20 8c.553 0 1.095-.015 1.636-.032-.542.451-1.085.883-1.629 1.295a43.85 43.85 0 0 1-1.636-1.295c.539.017 1.078.032 1.629.032zm-19-8c0-1.781 2.029-3.557 5.492-4.873 1.677 3.388 4.423 7.102 7.851 10.529.386.386.775.762 1.164 1.128-3.021-.282-5.775-.837-8.057-1.59.104-.207.193-.407.306-.618a.5.5 0 1 0-.881-.472c-.14.261-.249.508-.375.762-3.379-1.27-5.5-2.995-5.5-4.866zm12.998 12.952c-3.454 1.576-6.165 1.753-7.434.483-1.262-1.263-1.086-3.94.432-7.317 2.696.913 6.025 1.534 9.723 1.769a46.892 46.892 0 0 0 2.436 2.006c-1.755 1.259-3.5 2.303-5.157 3.059zm19.437.483c-1.985 1.985-7.11.368-12.591-3.553a46.637 46.637 0 0 0 2.425-1.994c3.702-.234 7.036-.856 9.734-1.77 1.516 3.377 1.694 6.054.432 7.317zm.065-8.568c-.126-.255-.235-.502-.375-.763a.5.5 0 0 0-.881.472c.113.211.202.411.306.618-2.285.753-5.041 1.308-8.065 1.59.393-.369.785-.743 1.171-1.129 3.397-3.397 6.164-7.117 7.854-10.528 3.462 1.316 5.489 3.091 5.489 4.871.001 1.873-2.12 3.598-5.499 4.869z"/><circle cx="19.006" cy="8.309" r="1.5" fill="#f15743"/><path fill="#f15743" d="M19.006 10.309c-1.103 0-2-.897-2-2s.897-2 2-2 2 .897 2 2-.898 2-2 2zm0-3a1.001 1.001 0 0 0 0 2 1.001 1.001 0 0 0 0-2z"/><circle cx="50.006" cy="25.309" r="1.5" fill="#f15743"/><path fill="#f15743" d="M50.006 27.309c-1.103 0-2-.897-2-2s.897-2 2-2 2 .897 2 2-.898 2-2 2zm0-3a1.001 1.001 0 0 0 0 2 1.001 1.001 0 0 0 0-2z"/><circle cx="19.006" cy="36.309" r="1.5" fill="#f15743"/><path fill="#f15743" d="M19.006 38.309c-1.103 0-2-.897-2-2s.897-2 2-2 2 .897 2 2-.898 2-2 2zm0-3a1.001 1.001 0 0 0 0 2 1.001 1.001 0 0 0 0-2z"/><circle cx="31.994" cy="6.75" r=".5" fill="#f15743"/><circle cx="47.494" cy="22.25" r=".5" fill="#f15743"/><circle cx="16.494" cy="22.25" r=".5" fill="#f15743"/><circle cx="42.954" cy="11.29" r=".5" fill="#f15743" transform="rotate(-45.001 42.956 11.29)"/><circle cx="21.034" cy="33.21" r=".5" fill="#f15743" transform="rotate(-45.001 21.031 33.21)"/><circle cx="42.954" cy="33.21" r=".5" fill="#f15743" transform="rotate(-45.001 42.954 33.21)"/><circle cx="21.034" cy="11.29" r=".5" fill="#f15743" transform="rotate(-45.001 21.034 11.29)"/><circle cx="26.062" cy="7.93" r=".5" fill="#f15743" transform="rotate(-22.497 26.064 7.931)"/><circle cx="37.925" cy="7.93" r=".5" fill="#f15743" transform="rotate(-67.5 37.925 7.93)"/><circle cx="28.97" cy="7.048" r=".5" fill="#f15743" transform="rotate(-11.246 28.966 7.045)"/><circle cx="47.196" cy="19.226" r=".5" fill="#f15743" transform="rotate(-11.246 47.19 19.22)"/><circle cx="16.792" cy="25.274" r=".5" fill="#f15743" transform="rotate(-11.246 16.797 25.276)"/><circle cx="40.605" cy="9.362" r=".5" fill="#f15743" transform="rotate(-56.246 40.607 9.363)"/><circle cx="23.382" cy="35.138" r=".5" fill="#f15743" transform="rotate(-56.255 23.38 35.137)"/><circle cx="44.881" cy="30.861" r=".5" fill="#f15743" transform="rotate(-56.255 44.879 30.862)"/><circle cx="19.106" cy="13.639" r=".5" fill="#f15743" transform="rotate(-56.25 19.105 13.638)"/><circle cx="23.382" cy="9.362" r=".5" fill="#f15743" transform="rotate(-33.75 23.382 9.362)"/><circle cx="40.605" cy="35.138" r=".5" fill="#f15743" transform="rotate(-33.747 40.608 35.14)"/><circle cx="44.881" cy="13.639" r=".5" fill="#f15743" transform="rotate(-33.747 44.885 13.64)"/><circle cx="19.106" cy="30.861" r=".5" fill="#f15743" transform="rotate(-33.754 19.106 30.862)"/><circle cx="35.018" cy="7.048" r=".5" fill="#f15743" transform="rotate(-78.749 35.017 7.048)"/><circle cx="47.196" cy="25.274" r=".5" fill="#f15743" transform="rotate(-78.749 47.197 25.273)"/><circle cx="16.792" cy="19.226" r=".5" fill="#f15743" transform="rotate(-78.749 16.79 19.226)"/></svg>