<svg xmlns="http://www.w3.org/2000/svg" enable-background="new 0 0 64 64" viewBox="0 0 64 64"><path d="M63.8,20.401C63.612,20.148,63.315,20,63,20h-2.502c-1.323,0-2.507,0.886-2.879,2.155l-3.1,10.562l1.919,0.563l3.1-10.562
	C59.662,22.295,60.057,22,60.498,22h1.167l-5.576,19h-1.916l1.678-5.718l-1.919-0.563L53.263,37H49c-0.265,0-0.52,0.105-0.707,0.292
	L48,37.586l-0.293-0.293C47.519,37.105,47.265,37,47,37h-4.393c-1.356,0-2.547,0.915-2.897,2.224L39.233,41H38v2h2.646l-3.385,11
	h-0.726l-1.703-2.555C34.646,51.167,34.334,51,34,51h-1V32h2c0.334,0,0.646-0.167,0.832-0.445L37.535,29h10.744
	c0.862,0,1.625-0.549,1.897-1.367l0.772-2.316c0.102-0.305,0.05-0.641-0.138-0.901S50.321,24,50,24h-3.357
	C47.474,23.266,48,22.194,48,21h2v-2h-2v-1c0-0.552-0.448-1-1-1h-6c-0.552,0-1,0.448-1,1v3c0,1.194,0.526,2.266,1.357,3H36v-1
	c0-1.103-0.897-2-2-2h-1v-6h5c0.552,0,1-0.448,1-1v-4c0-0.552-0.448-1-1-1h-5V8h-2v1h-5c-0.552,0-1,0.448-1,1v4c0,0.552,0.448,1,1,1
	h5v6h-1c-1.103,0-2,0.897-2,2v1h-5.357C23.474,23.266,24,22.194,24,21v-3c0-0.552-0.448-1-1-1h-6c-0.552,0-1,0.448-1,1v1h-2v2h2
	c0,1.194,0.526,2.266,1.357,3H14c-0.321,0-0.623,0.154-0.811,0.415s-0.239,0.596-0.138,0.901l0.772,2.316
	C14.096,28.451,14.859,29,15.721,29h10.744l1.703,2.555C28.354,31.833,28.666,32,29,32h2v19h-1c-0.334,0-0.646,0.167-0.832,0.445
	L27.465,54h-0.726l-3.385-11H26v-2h-1.233l-0.476-1.776C23.941,37.915,22.75,37,21.394,37H17c-0.265,0-0.52,0.105-0.707,0.292
	L16,37.586l-0.293-0.293C15.519,37.105,15.265,37,15,37h-4.262L6.381,22.155C6.009,20.886,4.825,20,3.502,20H1
	c-0.315,0-0.612,0.148-0.8,0.401c-0.189,0.252-0.248,0.579-0.159,0.881L5.827,41H4v2h2.646L3.261,54H2v2h2
	c0.439,0,0.827-0.286,0.956-0.706L5.661,53H8c0.208,0,0.412-0.065,0.581-0.186L15,48.229l6.419,4.585C21.588,52.935,21.792,53,22,53
	h2.339l0.706,2.294C25.173,55.714,25.561,56,26,56h12c0.439,0,0.827-0.286,0.956-0.706L39.661,53H42
	c0.208,0,0.412-0.065,0.581-0.186L49,48.229l6.419,4.585C55.588,52.935,55.792,53,56,53h2.339l0.706,2.294
	C59.173,55.714,59.561,56,60,56h2v-2h-1.261l-3.385-11H60v-2h-1.827l5.786-19.718C64.048,20.979,63.989,20.653,63.8,20.401z M42,19
	h4v2c0,1.103-0.897,2-2,2s-2-0.897-2-2V19z M27,11h10v2H27V11z M18,19h4v2c0,1.103-0.897,2-2,2s-2-0.897-2-2V19z M30,23h4v1h-4V23z
	 M15.387,26h33.226l-0.333,1H15.721L15.387,26z M28.869,29h6.263l-0.667,1h-4.93L28.869,29z M18.879,43L15,45.771L11.121,43H18.879z
	 M14.585,39l0.708,0.708c0.391,0.39,1.023,0.39,1.414,0L17.415,39h3.979c0.452,0,0.849,0.305,0.966,0.741L22.697,41H11.911l-0.587-2
	H14.585z M2.335,22h1.167c0.441,0,0.836,0.295,0.96,0.719L9.827,41H7.911L2.335,22z M7.68,51H6.277l2.271-7.38L13.279,47L7.68,51z
	 M22.32,51l-5.6-4l4.732-3.38L23.723,51H22.32z M29.869,54l0.667-1h2.93l0.667,1H29.869z M52.879,43L49,45.771L45.121,43H52.879z
	 M41.641,39.741C41.757,39.305,42.155,39,42.606,39h3.979l0.708,0.708c0.391,0.39,1.023,0.39,1.414,0L49.415,39h3.261l-0.587,2
	H41.303L41.641,39.741z M41.68,51h-1.403l2.271-7.38L47.279,47L41.68,51z M56.32,51l-5.6-4l4.732-3.38L57.723,51H56.32z"/></svg>