<svg xmlns="http://www.w3.org/2000/svg" enable-background="new 0 0 68 68" viewBox="0 0 68 68"><path d="M58.5,49.9c1.5,0.8,3.1,0.5,4.6-0.4c2.3-1.4,4.4-4.5,3.9-7c-0.3-1.3-1-1.9-1.6-2.1c-0.9-0.4-2-0.2-2.9,0.2
		c0-0.5,0.1-1,0.1-1.4c0-0.6-0.4-1-1-1h-4.8c0.2-0.8,0.3-1.6,0.3-2.5c0-8.3-9.3-13-15.7-8.2c-0.3-0.3-0.7-0.6-1.1-0.9
		c0-5.3,0.2-4.1-0.7-5.6c-2-3.4-5.4-5.6-9.2-6.2l0.6-1.2c1-2.1-0.5-4.4-2.7-4.4c-2.2,0-3.7,2.3-2.7,4.4l0.6,1.4
		c-4.9,1-9,5.4-9.2,7.4c0,5.1,0,4.2,0,4.6c-1.8,1.5-3.3,4.3-4.9,3.8c-0.6-0.2-2.2-1.3-3-7.4c0-0.5-0.4-4.9-3-6
		c-1.4-0.6-2.9-0.1-4.7,1.4c-0.3,0.2-0.4,0.6-0.3,1c0.1,0.4,0.4,0.7,0.8,0.7c0.1,0,2,0.5,1.4,5C2.7,29,2,40.3,10.4,43.1v2.1
		c0,1.5,0.9,2.9,2.3,3.4c5.3,1.9,10.7,2.8,16,2.8c3.9,0,7.8-0.5,11.7-1.5c0.8,0.8,1.6,1.6,2.5,2.2h-6.4c-0.4,0-0.8,0.2-0.9,0.6
		c-0.2,0.4-0.1,0.8,0.2,1.1c3.1,3.2,7.4,5.1,11.8,5.1h3.6c4.4,0,8.7-1.8,11.8-5.1c0.3-0.3,0.4-0.7,0.2-1.1c-0.2-0.4-0.5-0.6-0.9-0.6
		H56C56.9,51.4,57.7,50.7,58.5,49.9z M64.6,42.3c0.1,0,0.3,0.1,0.4,0.6c0.3,1.4-1.1,3.8-2.9,4.9c-0.6,0.4-1.4,0.7-2.3,0.5
		c1-1.5,1.8-3.3,2.3-5.2C63.1,42.4,64.1,42.1,64.6,42.3z M55,35.7c0,0.8-0.1,1.7-0.4,2.5H47c-0.6-3.4-2.1-6.6-4.3-9.2
		C47.9,25.3,55,29.2,55,35.7z M37.4,38.2c-0.6,0-1,0.4-1,1c0,1.1,0.1,2.1,0.3,3.1H12.4c0-0.3-0.8-8.8,6.7-14.5h19.4
		c3.2,2.4,5.6,6.1,6.4,10.3H37.4z M18.9,25.8v-2.4h19.3v2.4H18.9z M27.3,12.8c-0.3-0.7,0.2-1.6,0.9-1.6c0.8,0,1.3,0.8,0.9,1.6
		l-0.9,1.9c0,0,0,0,0,0L27.3,12.8z M37.5,21.4H19.7C24.1,15.2,33.1,15.1,37.5,21.4z M5.2,25.8c0.5-3.5-0.4-5.3-1.4-6.3
		c0.5-0.3,1-0.4,1.4-0.2c2.5,1.1,1.4,12,6.3,13.4c0.3,0.1,0.7,0.1,1,0.1c-1.3,2.5-1.9,5.2-2,8.1C4.1,38.2,4.8,28.8,5.2,25.8z
		 M13.4,46.7c-0.6-0.2-1-0.8-1-1.5v-0.9h24.8c0.5,1.5,1.2,2.8,1.9,3.9C30.5,50.2,21.9,49.7,13.4,46.7z M59.7,54
		c-2.4,1.8-5.4,2.7-8.4,2.7h-3.6c-3,0-6-1-8.4-2.7h10.2c0,0,0,0,0.1,0c0,0,0,0,0.1,0H59.7z M49.5,52h-0.1c-6.1,0-10.5-5.6-10.9-11.9
		c6.6,0,14.8,0,22,0C60,46.4,55.5,52,49.5,52z"/></svg>